<?xml version="1.0" encoding="UTF-8" standalone="no"?>
<svg
   xmlns:dc="http://purl.org/dc/elements/1.1/"
   xmlns:cc="http://creativecommons.org/ns#"
   xmlns:rdf="http://www.w3.org/1999/02/22-rdf-syntax-ns#"
   xmlns:svg="http://www.w3.org/2000/svg"
   xmlns="http://www.w3.org/2000/svg"
   xmlns:sodipodi="http://sodipodi.sourceforge.net/DTD/sodipodi-0.dtd"
   xmlns:inkscape="http://www.inkscape.org/namespaces/inkscape"
   color-rendering="auto"
   color-interpolation="auto"
   text-rendering="auto"
   width="741.00006"
   stroke-miterlimit="10"
   shape-rendering="auto"
   font-weight="normal"
   height="567.5022"
   font-style="normal"
   font-size="12"
   image-rendering="auto"
   id="svg2"
   version="1.1"
   inkscape:version="0.48.1 r9760"
   sodipodi:docname="session.svg"
   style="font-size:12px;font-style:normal;font-weight:normal;fill:#000000;fill-opacity:0;stroke:#000000;stroke-width:1;stroke-linecap:square;stroke-linejoin:miter;stroke-miterlimit:10;stroke-opacity:0;stroke-dasharray:none;stroke-dashoffset:0;font-family:Dialog">
  <metadata
     id="metadata349">
    <rdf:RDF>
      <cc:Work
         rdf:about="">
        <dc:format>image/svg+xml</dc:format>
        <dc:type
           rdf:resource="http://purl.org/dc/dcmitype/StillImage" />
      </cc:Work>
    </rdf:RDF>
  </metadata>
  <sodipodi:namedview
     pagecolor="#ffffff"
     bordercolor="#666666"
     borderopacity="1"
     objecttolerance="10"
     gridtolerance="10"
     guidetolerance="10"
     inkscape:pageopacity="0"
     inkscape:pageshadow="2"
     inkscape:window-width="1280"
     inkscape:window-height="723"
     id="namedview347"
     showgrid="false"
     fit-margin-top="20"
     fit-margin-left="20"
     fit-margin-right="20"
     fit-margin-bottom="20"
     inkscape:zoom="0.53731343"
     inkscape:cx="434.65955"
     inkscape:cy="288.96721"
     inkscape:window-x="0"
     inkscape:window-y="24"
     inkscape:window-maximized="1"
     inkscape:current-layer="svg2" />
  <!--Generated by the Batik Graphics2D SVG Generator-->
  <defs
     id="genericDefs">
    <defs
       id="defs1">
      <clipPath
         id="clipPath1"
         clipPathUnits="userSpaceOnUse">
        <path
           id="path9"
           d="m -7,-7 98,0 0,548 -98,0 0,-548 z"
           inkscape:connector-curvature="0" />
      </clipPath>
      <clipPath
         id="clipPath2"
         clipPathUnits="userSpaceOnUse">
        <path
           id="path12"
           d="m -7,-7 168,0 0,548 -168,0 0,-548 z"
           inkscape:connector-curvature="0" />
      </clipPath>
      <clipPath
         id="clipPath3"
         clipPathUnits="userSpaceOnUse">
        <path
           id="path15"
           d="m -7,-7 88,0 0,548 -88,0 0,-548 z"
           inkscape:connector-curvature="0" />
      </clipPath>
      <clipPath
         id="clipPath4"
         clipPathUnits="userSpaceOnUse">
        <path
           id="path18"
           d="m -7,-7 26,0 0,450 -26,0 0,-450 z"
           inkscape:connector-curvature="0" />
      </clipPath>
      <clipPath
         id="clipPath5"
         clipPathUnits="userSpaceOnUse">
        <path
           id="path21"
           d="m -7,-7 26,0 0,74 -26,0 0,-74 z"
           inkscape:connector-curvature="0" />
      </clipPath>
      <clipPath
         id="clipPath6"
         clipPathUnits="userSpaceOnUse">
        <path
           id="path24"
           d="m -7,-7 26,0 0,462 -26,0 0,-462 z"
           inkscape:connector-curvature="0" />
      </clipPath>
      <clipPath
         id="clipPath7"
         clipPathUnits="userSpaceOnUse">
        <path
           id="path27"
           d="m -7,-7 688,0 0,268 -688,0 0,-268 z"
           inkscape:connector-curvature="0" />
      </clipPath>
      <clipPath
         id="clipPath8"
         clipPathUnits="userSpaceOnUse">
        <path
           id="path30"
           d="M 0,0 37,0 37,17 0,17 0,0 z"
           inkscape:connector-curvature="0" />
      </clipPath>
      <clipPath
         id="clipPath9"
         clipPathUnits="userSpaceOnUse">
        <path
           id="path33"
           d="m -7,-7 26,0 0,31 -26,0 0,-31 z"
           inkscape:connector-curvature="0" />
      </clipPath>
      <clipPath
         id="clipPath10"
         clipPathUnits="userSpaceOnUse">
        <path
           id="path36"
           d="m -7,-7 26,0 0,61 -26,0 0,-61 z"
           inkscape:connector-curvature="0" />
      </clipPath>
      <clipPath
         id="clipPath11"
         clipPathUnits="userSpaceOnUse">
        <path
           id="path39"
           d="m -7,-7 288,0 0,108 -288,0 0,-108 z"
           inkscape:connector-curvature="0" />
      </clipPath>
      <clipPath
         id="clipPath12"
         clipPathUnits="userSpaceOnUse">
        <path
           id="path42"
           d="m 0,0 0,90 255,0 0,-90 z"
           inkscape:connector-curvature="0" />
      </clipPath>
      <clipPath
         id="clipPath13"
         clipPathUnits="userSpaceOnUse">
        <path
           id="path45"
           d="m -7,-7 688,0 0,251 -688,0 0,-251 z"
           inkscape:connector-curvature="0" />
      </clipPath>
      <clipPath
         id="clipPath14"
         clipPathUnits="userSpaceOnUse">
        <path
           id="path48"
           d="M 0,0 253,0 253,14 0,14 0,0 z"
           inkscape:connector-curvature="0" />
      </clipPath>
      <clipPath
         id="clipPath15"
         clipPathUnits="userSpaceOnUse">
        <path
           id="path51"
           d="m 0,0 0,4 670,0 0,-4 z"
           inkscape:connector-curvature="0" />
      </clipPath>
      <clipPath
         id="clipPath16"
         clipPathUnits="userSpaceOnUse">
        <path
           id="path54"
           d="m -70,-14 210,0 0,42 -210,0 0,-42 z"
           inkscape:connector-curvature="0" />
      </clipPath>
      <clipPath
         id="clipPath17"
         clipPathUnits="userSpaceOnUse">
        <path
           id="path57"
           d="m -150,-14 450,0 0,42 -450,0 0,-42 z"
           inkscape:connector-curvature="0" />
      </clipPath>
      <clipPath
         id="clipPath18"
         clipPathUnits="userSpaceOnUse">
        <path
           id="path60"
           d="m -80,-14 240,0 0,42 -240,0 0,-42 z"
           inkscape:connector-curvature="0" />
      </clipPath>
      <clipPath
         id="clipPath19"
         clipPathUnits="userSpaceOnUse">
        <path
           id="path63"
           d="M 0,0 426,0 426,104 0,104 0,0 z"
           inkscape:connector-curvature="0" />
      </clipPath>
      <clipPath
         id="clipPath20"
         clipPathUnits="userSpaceOnUse">
        <path
           id="path66"
           d="M 0,0 104,0 104,123 0,123 0,0 z"
           inkscape:connector-curvature="0" />
      </clipPath>
      <clipPath
         id="clipPath21"
         clipPathUnits="userSpaceOnUse">
        <path
           id="path69"
           d="M 0,0 341,0 341,104 0,104 0,0 z"
           inkscape:connector-curvature="0" />
      </clipPath>
      <clipPath
         id="clipPath22"
         clipPathUnits="userSpaceOnUse">
        <path
           id="path72"
           d="m -110,-14 330,0 0,42 -330,0 0,-42 z"
           inkscape:connector-curvature="0" />
      </clipPath>
      <clipPath
         id="clipPath23"
         clipPathUnits="userSpaceOnUse">
        <path
           id="path75"
           d="m -120,-14 360,0 0,42 -360,0 0,-42 z"
           inkscape:connector-curvature="0" />
      </clipPath>
      <clipPath
         id="clipPath24"
         clipPathUnits="userSpaceOnUse">
        <path
           id="path78"
           d="m -79,-14 237,0 0,42 -237,0 0,-42 z"
           inkscape:connector-curvature="0" />
      </clipPath>
      <clipPath
         id="clipPath25"
         clipPathUnits="userSpaceOnUse">
        <path
           id="path81"
           d="m -109,-14 327,0 0,42 -327,0 0,-42 z"
           inkscape:connector-curvature="0" />
      </clipPath>
      <clipPath
         id="clipPath26"
         clipPathUnits="userSpaceOnUse">
        <path
           id="path84"
           d="m -124,-14 372,0 0,42 -372,0 0,-42 z"
           inkscape:connector-curvature="0" />
      </clipPath>
      <clipPath
         id="clipPath27"
         clipPathUnits="userSpaceOnUse">
        <path
           id="path87"
           d="m -159,-14 477,0 0,42 -477,0 0,-42 z"
           inkscape:connector-curvature="0" />
      </clipPath>
      <clipPath
         id="clipPath28"
         clipPathUnits="userSpaceOnUse">
        <path
           id="path90"
           d="m -139,-14 417,0 0,42 -417,0 0,-42 z"
           inkscape:connector-curvature="0" />
      </clipPath>
      <clipPath
         id="clipPath29"
         clipPathUnits="userSpaceOnUse">
        <path
           id="path93"
           d="m -144,-14 432,0 0,42 -432,0 0,-42 z"
           inkscape:connector-curvature="0" />
      </clipPath>
    </defs>
  </defs>
  <g
     id="g3511"
     transform="translate(18.500078,18.502202)">
    <g
       font-size="11"
       transform="translate(612,2)"
       text-rendering="geometricPrecision"
       id="g99"
       style="font-size:11px;fill:#7acff5;fill-opacity:1;stroke:#7acff5;stroke-opacity:1;font-family:sans-serif">
      <rect
         x="0"
         width="79"
         height="35"
         y="0"
         clip-path="url(#clipPath1)"
         id="rect101"
         style="stroke:none" />
    </g>
    <g
       font-size="11"
       transform="translate(612,2)"
       text-rendering="geometricPrecision"
       stroke-miterlimit="0"
       id="g103"
       style="font-size:11px;fill:#000000;fill-opacity:1;stroke:#000000;stroke-linecap:butt;stroke-linejoin:round;stroke-miterlimit:0;stroke-opacity:1;font-family:sans-serif">
      <rect
         x="0"
         width="79"
         height="35"
         y="0"
         clip-path="url(#clipPath1)"
         id="rect105"
         style="fill:none" />
      <line
         clip-path="url(#clipPath1)"
         x1="39"
         x2="39"
         y1="35"
         y2="530"
         id="line107"
         style="fill:none;stroke-linejoin:bevel;stroke-dasharray:8, 3" />
    </g>
    <g
       font-size="11"
       transform="translate(2,2)"
       text-rendering="geometricPrecision"
       id="g109"
       style="font-size:11px;fill:#7acff5;fill-opacity:1;stroke:#7acff5;stroke-opacity:1;font-family:sans-serif">
      <rect
         x="0"
         width="149"
         height="35"
         y="0"
         clip-path="url(#clipPath2)"
         id="rect111"
         style="stroke:none" />
    </g>
    <g
       font-size="11"
       transform="translate(2,2)"
       text-rendering="geometricPrecision"
       stroke-miterlimit="0"
       id="g113"
       style="font-size:11px;fill:#000000;fill-opacity:1;stroke:#000000;stroke-linecap:butt;stroke-linejoin:round;stroke-miterlimit:0;stroke-opacity:1;font-family:sans-serif">
      <rect
         x="0"
         width="149"
         height="35"
         y="0"
         clip-path="url(#clipPath2)"
         id="rect115"
         style="fill:none" />
      <line
         clip-path="url(#clipPath2)"
         x1="74"
         x2="74"
         y1="35"
         y2="530"
         id="line117"
         style="fill:none;stroke-linejoin:bevel;stroke-dasharray:8, 3" />
    </g>
    <g
       font-size="11"
       transform="translate(372,2)"
       text-rendering="geometricPrecision"
       id="g119"
       style="font-size:11px;fill:#7acff5;fill-opacity:1;stroke:#7acff5;stroke-opacity:1;font-family:sans-serif">
      <rect
         x="0"
         width="69"
         height="35"
         y="0"
         clip-path="url(#clipPath3)"
         id="rect121"
         style="stroke:none" />
    </g>
    <g
       font-size="11"
       transform="translate(372,2)"
       text-rendering="geometricPrecision"
       stroke-miterlimit="0"
       id="g123"
       style="font-size:11px;fill:#000000;fill-opacity:1;stroke:#000000;stroke-linecap:butt;stroke-linejoin:round;stroke-miterlimit:0;stroke-opacity:1;font-family:sans-serif">
      <rect
         x="0"
         width="69"
         height="35"
         y="0"
         clip-path="url(#clipPath3)"
         id="rect125"
         style="fill:none" />
      <line
         clip-path="url(#clipPath3)"
         x1="34"
         x2="34"
         y1="35"
         y2="530"
         id="line127"
         style="fill:none;stroke-linejoin:bevel;stroke-dasharray:8, 3" />
    </g>
    <g
       font-size="11"
       transform="translate(73,62)"
       text-rendering="geometricPrecision"
       id="g129"
       style="font-size:11px;fill:#7acff5;fill-opacity:1;stroke:#7acff5;stroke-opacity:1;font-family:sans-serif">
      <rect
         x="0"
         width="8"
         height="432"
         y="0"
         clip-path="url(#clipPath4)"
         id="rect131"
         style="stroke:none" />
    </g>
    <g
       font-size="11"
       transform="translate(73,62)"
       text-rendering="geometricPrecision"
       stroke-miterlimit="0"
       id="g133"
       style="font-size:11px;fill:#000000;fill-opacity:1;stroke:#000000;stroke-linecap:butt;stroke-linejoin:round;stroke-miterlimit:0;stroke-opacity:1;font-family:sans-serif">
      <rect
         x="0"
         width="8"
         height="432"
         y="0"
         clip-path="url(#clipPath4)"
         id="rect135"
         style="fill:none" />
    </g>
    <g
       font-size="11"
       transform="translate(648,142)"
       text-rendering="geometricPrecision"
       id="g137"
       style="font-size:11px;fill:#7acff5;fill-opacity:1;stroke:#7acff5;stroke-opacity:1;font-family:sans-serif">
      <rect
         x="0"
         width="8"
         height="56"
         y="0"
         clip-path="url(#clipPath5)"
         id="rect139"
         style="stroke:none" />
    </g>
    <g
       font-size="11"
       transform="translate(648,142)"
       text-rendering="geometricPrecision"
       stroke-miterlimit="0"
       id="g141"
       style="font-size:11px;fill:#000000;fill-opacity:1;stroke:#000000;stroke-linecap:butt;stroke-linejoin:round;stroke-miterlimit:0;stroke-opacity:1;font-family:sans-serif">
      <rect
         x="0"
         width="8"
         height="56"
         y="0"
         clip-path="url(#clipPath5)"
         id="rect143"
         style="fill:none" />
    </g>
    <g
       font-size="11"
       transform="translate(403,62)"
       text-rendering="geometricPrecision"
       id="g145"
       style="font-size:11px;fill:#7acff5;fill-opacity:1;stroke:#7acff5;stroke-opacity:1;font-family:sans-serif">
      <rect
         x="0"
         width="8"
         height="444"
         y="0"
         clip-path="url(#clipPath6)"
         id="rect147"
         style="stroke:none" />
    </g>
    <g
       font-size="11"
       transform="translate(403,62)"
       text-rendering="geometricPrecision"
       stroke-miterlimit="0"
       id="g149"
       style="font-size:11px;fill:#000000;fill-opacity:1;stroke:#000000;stroke-linecap:butt;stroke-linejoin:round;stroke-miterlimit:0;stroke-opacity:1;font-family:sans-serif">
      <rect
         x="0"
         width="8"
         height="444"
         y="0"
         clip-path="url(#clipPath6)"
         id="rect151"
         style="fill:none" />
    </g>
    <g
       font-size="11"
       transform="translate(32,212)"
       text-rendering="geometricPrecision"
       font-weight="bold"
       stroke-miterlimit="0"
       id="g153"
       style="font-size:11px;font-weight:bold;fill:#000000;fill-opacity:1;stroke:#000000;stroke-linecap:butt;stroke-linejoin:round;stroke-miterlimit:0;stroke-opacity:1;font-family:sans-serif">
      <rect
         x="0"
         width="670"
         height="250"
         y="0"
         clip-path="url(#clipPath7)"
         id="rect155"
         style="fill:none" />
    </g>
    <g
       font-size="11"
       transform="translate(32,212)"
       text-rendering="geometricPrecision"
       font-weight="bold"
       id="g157"
       style="font-size:11px;font-weight:bold;fill:#ffffff;fill-opacity:1;stroke:#ffffff;stroke-opacity:1;font-family:sans-serif">
      <path
         d="M 36,0 36,8 30,16 0,16 0,0 z"
         clip-path="url(#clipPath7)"
         id="path159"
         inkscape:connector-curvature="0"
         style="stroke:none" />
    </g>
    <g
       font-size="11"
       transform="translate(32,212)"
       text-rendering="geometricPrecision"
       font-weight="bold"
       stroke-miterlimit="0"
       id="g161"
       style="font-size:11px;font-weight:bold;fill:#000000;fill-opacity:1;stroke:#000000;stroke-linecap:butt;stroke-linejoin:round;stroke-miterlimit:0;stroke-opacity:1;font-family:sans-serif">
      <path
         d="M 36,0 36,8 30,16 0,16 0,0 z"
         clip-path="url(#clipPath7)"
         id="path163"
         inkscape:connector-curvature="0"
         style="fill:none" />
    </g>
    <g
       font-size="11"
       transform="translate(32,212)"
       text-rendering="geometricPrecision"
       font-weight="bold"
       id="g165"
       style="font-size:11px;font-weight:bold;fill:#000000;fill-opacity:1;stroke:#000000;stroke-opacity:1;font-family:sans-serif">
      <text
         x="4"
         xml:space="preserve"
         y="11"
         clip-path="url(#clipPath8)"
         id="text167"
         style="stroke:none">loop</text>
    </g>
    <g
       font-size="11"
       transform="translate(648,432)"
       text-rendering="geometricPrecision"
       id="g169"
       style="font-size:11px;fill:#7acff5;fill-opacity:1;stroke:#7acff5;stroke-opacity:1;font-family:sans-serif">
      <rect
         x="0"
         width="8"
         height="13"
         y="0"
         clip-path="url(#clipPath9)"
         id="rect171"
         style="stroke:none" />
    </g>
    <g
       font-size="11"
       transform="translate(648,432)"
       text-rendering="geometricPrecision"
       stroke-miterlimit="0"
       id="g173"
       style="font-size:11px;fill:#000000;fill-opacity:1;stroke:#000000;stroke-linecap:butt;stroke-linejoin:round;stroke-miterlimit:0;stroke-opacity:1;font-family:sans-serif">
      <rect
         x="0"
         width="8"
         height="13"
         y="0"
         clip-path="url(#clipPath9)"
         id="rect175"
         style="fill:none" />
    </g>
    <g
       font-size="11"
       transform="translate(648,272)"
       text-rendering="geometricPrecision"
       id="g177"
       style="font-size:11px;fill:#7acff5;fill-opacity:1;stroke:#7acff5;stroke-opacity:1;font-family:sans-serif">
      <rect
         x="0"
         width="8"
         height="43"
         y="0"
         clip-path="url(#clipPath10)"
         id="rect179"
         style="stroke:none" />
    </g>
    <g
       font-size="11"
       transform="translate(648,272)"
       text-rendering="geometricPrecision"
       stroke-miterlimit="0"
       id="g181"
       style="font-size:11px;fill:#000000;fill-opacity:1;stroke:#000000;stroke-linecap:butt;stroke-linejoin:round;stroke-miterlimit:0;stroke-opacity:1;font-family:sans-serif">
      <rect
         x="0"
         width="8"
         height="43"
         y="0"
         clip-path="url(#clipPath10)"
         id="rect183"
         style="fill:none" />
    </g>
    <g
       font-size="11"
       transform="translate(102,82)"
       text-rendering="geometricPrecision"
       id="g185"
       style="font-size:11px;fill:#7acff5;fill-opacity:1;stroke:#7acff5;stroke-opacity:1;font-family:sans-serif">
      <polygon
         points="269,89 0,89 0,0 254,0 269,15 254,15 254,0 269,15 "
         clip-path="url(#clipPath11)"
         id="polygon187"
         style="stroke:none" />
    </g>
    <g
       font-size="11"
       transform="translate(102,82)"
       text-rendering="geometricPrecision"
       stroke-miterlimit="0"
       id="g189"
       style="font-size:11px;fill:#000000;fill-opacity:1;stroke:#000000;stroke-linecap:butt;stroke-linejoin:round;stroke-miterlimit:0;stroke-opacity:1;font-family:sans-serif">
      <polygon
         points="269,89 0,89 0,0 254,0 269,15 254,15 254,0 269,15 "
         clip-path="url(#clipPath11)"
         id="polygon191"
         style="fill:none" />
    </g>
    <g
       font-size="11.5385"
       transform="translate(102,82)"
       text-rendering="geometricPrecision"
       id="g193"
       style="font-size:11.53849983px;fill:#000000;fill-opacity:1;stroke:#000000;stroke-opacity:1;font-family:sans-serif">
      <circle
         r="4"
         clip-path="url(#clipPath12)"
         cx="34"
         cy="10"
         id="circle195"
         d="m 38,10 c 0,2.209139 -1.790861,4 -4,4 -2.209139,0 -4,-1.790861 -4,-4 0,-2.209139 1.790861,-4 4,-4 2.209139,0 4,1.790861 4,4 z"
         sodipodi:cx="34"
         sodipodi:cy="10"
         sodipodi:rx="4"
         sodipodi:ry="4"
         style="stroke:none" />
      <path
         d="m 48.4531,8.1411 0,-3.5625 1.0781,0 0,9.125 -1.0781,0 0,-0.9844 q -0.3437,0.5781 -0.8593,0.8672 -0.5157,0.289 -1.25,0.289 -1.1876,0 -1.9376,-0.9531 -0.75,-0.9531 -0.75,-2.5 0,-1.5469 0.75,-2.4922 0.75,-0.9453 1.9376,-0.9453 0.7343,0 1.25,0.2813 0.5156,0.2812 0.8593,0.875 z m -3.6719,2.2812 q 0,1.1875 0.4844,1.8672 0.4844,0.6797 1.3438,0.6797 0.8594,0 1.3515,-0.6797 0.4922,-0.6797 0.4922,-1.8672 0,-1.1875 -0.4922,-1.8594 -0.4921,-0.6718 -1.3515,-0.6718 -0.8594,0 -1.3438,0.6718 -0.4844,0.6719 -0.4844,1.8594 z m 12.9688,-0.2656 0,0.5156 -4.9688,0 q 0.0782,1.125 0.6797,1.7031 0.6016,0.5782 1.6641,0.5782 0.625,0 1.2109,-0.1485 0.586,-0.1484 1.1641,-0.4609 l 0,1.0312 q -0.5938,0.2344 -1.2031,0.3672 -0.6094,0.1328 -1.2344,0.1328 -1.5625,0 -2.4844,-0.914 -0.9219,-0.9141 -0.9219,-2.4766 0,-1.6094 0.875,-2.5547 0.875,-0.9453 2.3438,-0.9453 1.3281,0 2.1016,0.8516 0.7734,0.8515 0.7734,2.3203 z M 56.6719,9.8286 q -0.0157,-0.875 -0.5,-1.4063 -0.4844,-0.5312 -1.2813,-0.5312 -0.9062,0 -1.4453,0.5156 -0.5391,0.5156 -0.6172,1.4375 l 3.8438,-0.0156 z m 2.6875,-2.6875 1.1406,0 2.0469,5.5 2.0625,-5.5 1.1406,0 -2.4688,6.5625 -1.4687,0 -2.4531,-6.5625 z m 6.7656,0 1.0781,0 0,6.5625 -1.0781,0 0,-6.5625 z m 0,-2.5625 1.0781,0 0,1.375 -1.0781,0 0,-1.375 z m 7.7344,2.8125 0,1.0156 q -0.4688,-0.2656 -0.9219,-0.3906 -0.4531,-0.125 -0.9219,-0.125 -1.0625,0 -1.6406,0.664 -0.5781,0.6641 -0.5781,1.8672 0,1.2031 0.5781,1.8672 0.5781,0.6641 1.6406,0.6641 0.4688,0 0.9219,-0.125 0.4531,-0.125 0.9219,-0.375 l 0,1 q -0.4532,0.2031 -0.9375,0.3125 -0.4844,0.1093 -1.0313,0.1093 -1.4844,0 -2.3594,-0.9296 -0.875,-0.9297 -0.875,-2.5235 0,-1.5937 0.8829,-2.5156 0.8828,-0.9219 2.4297,-0.9219 0.4843,0 0.9609,0.1016 0.4765,0.1015 0.9297,0.3047 z m 7.8906,2.7656 0,0.5156 -4.9688,0 q 0.0782,1.125 0.6797,1.7031 0.6016,0.5782 1.6641,0.5782 0.625,0 1.2109,-0.1485 0.586,-0.1484 1.1641,-0.4609 l 0,1.0312 q -0.5938,0.2344 -1.2031,0.3672 -0.6094,0.1328 -1.2344,0.1328 -1.5625,0 -2.4844,-0.914 -0.9219,-0.9141 -0.9219,-2.4766 0,-1.6094 0.875,-2.5547 0.875,-0.9453 2.3438,-0.9453 1.3281,0 2.1016,0.8516 0.7734,0.8515 0.7734,2.3203 z M 80.6719,9.8286 q -0.0157,-0.875 -0.5,-1.4063 -0.4844,-0.5312 -1.2813,-0.5312 -0.9062,0 -1.4453,0.5156 -0.5391,0.5156 -0.6172,1.4375 l 3.8438,-0.0156 z m 7.4531,-2.6875 1.0781,0 0,6.5625 -1.0781,0 0,-6.5625 z m 0,-2.5625 1.0781,0 0,1.375 -1.0781,0 0,-1.375 z m 7.3281,3.5625 0,-3.5625 1.0781,0 0,9.125 -1.0781,0 0,-0.9844 q -0.3437,0.5781 -0.8593,0.8672 -0.5157,0.289 -1.25,0.289 -1.1876,0 -1.9376,-0.9531 -0.75,-0.9531 -0.75,-2.5 0,-1.5469 0.75,-2.4922 0.75,-0.9453 1.9376,-0.9453 0.7343,0 1.25,0.2813 0.5156,0.2812 0.8593,0.875 z m -3.6719,2.2812 q 0,1.1875 0.4844,1.8672 0.4844,0.6797 1.3438,0.6797 0.8594,0 1.3515,-0.6797 0.4922,-0.6797 0.4922,-1.8672 0,-1.1875 -0.4922,-1.8594 -0.4921,-0.6718 -1.3515,-0.6718 -0.8594,0 -1.3438,0.6718 -0.4844,0.6719 -0.4844,1.8594 z m 12.9688,-0.2656 0,0.5156 -4.9688,0 q 0.0782,1.125 0.6797,1.7031 0.6016,0.5782 1.6641,0.5782 0.625,0 1.2109,-0.1485 0.586,-0.1484 1.1641,-0.4609 l 0,1.0312 q -0.5938,0.2344 -1.2031,0.3672 -0.6094,0.1328 -1.2344,0.1328 -1.5625,0 -2.4844,-0.914 -0.9219,-0.9141 -0.9219,-2.4766 0,-1.6094 0.875,-2.5547 0.875,-0.9453 2.3438,-0.9453 1.3281,0 2.1016,0.8516 0.7734,0.8515 0.7734,2.3203 z m -1.0781,-0.3281 q -0.0157,-0.875 -0.5,-1.4063 -0.4844,-0.5312 -1.2813,-0.5312 -0.9062,0 -1.4453,0.5156 -0.5391,0.5156 -0.6172,1.4375 l 3.8438,-0.0156 z m 8.9219,-0.0938 0,3.9688 -1.0782,0 0,-3.9219 q 0,-0.9375 -0.3672,-1.3984 -0.3672,-0.461 -1.0859,-0.461 -0.875,0 -1.3828,0.5547 -0.5078,0.5547 -0.5078,1.5234 l 0,3.7032 -1.0781,0 0,-6.5625 1.0781,0 0,1.0156 q 0.3906,-0.5938 0.914,-0.8828 0.5235,-0.2891 1.211,-0.2891 1.125,0 1.7109,0.6953 0.586,0.6953 0.586,2.0547 z m 3.6093,-4.4531 0,1.8594 2.2188,0 0,0.8437 -2.2188,0 0,3.5625 q 0,0.7969 0.2188,1.0235 0.2187,0.2265 0.8906,0.2265 l 1.1094,0 0,0.9063 -1.1094,0 q -1.25,0 -1.7266,-0.4688 -0.4765,-0.4687 -0.4765,-1.6875 l 0,-3.5625 -0.7813,0 0,-0.8437 0.7813,0 0,-1.8594 1.0937,0 z m 3.9219,1.8594 1.0781,0 0,6.5625 -1.0781,0 0,-6.5625 z m 0,-2.5625 1.0781,0 0,1.375 -1.0781,0 0,-1.375 z m 4.0781,0.7031 0,1.8594 2.2188,0 0,0.8437 -2.2188,0 0,3.5625 q 0,0.7969 0.2188,1.0235 0.2187,0.2265 0.8906,0.2265 l 1.1094,0 0,0.9063 -1.1094,0 q -1.25,0 -1.7266,-0.4688 -0.4765,-0.4687 -0.4765,-1.6875 l 0,-3.5625 -0.7813,0 0,-0.8437 0.7813,0 0,-1.8594 1.0937,0 z m 6.6563,9.0312 q -0.4532,1.1719 -0.8906,1.5313 -0.4376,0.3594 -1.1563,0.3594 l -0.8594,0 0,-0.9063 0.625,0 q 0.4531,0 0.6953,-0.2109 0.2422,-0.211 0.5391,-0.9922 l 0.2031,-0.5 -2.6562,-6.4531 1.1406,0 2.0469,5.125 2.0625,-5.125 1.1406,0 -2.8906,7.1718 z m 3.5468,-2.0937 1.2344,0 0,1.4844 -1.2344,0 0,-1.4844 z m 0,-4.7188 1.2344,0 0,1.4844 -1.2344,0 0,-1.4844 z m 13.1876,2.2344 0,3.9688 -1.0782,0 0,-3.9219 q 0,-0.9375 -0.3672,-1.3984 -0.3672,-0.461 -1.0859,-0.461 -0.875,0 -1.3828,0.5547 -0.5078,0.5547 -0.5078,1.5234 l 0,3.7032 -1.0781,0 0,-6.5625 1.0781,0 0,1.0156 q 0.3906,-0.5938 0.914,-0.8828 0.5235,-0.2891 1.211,-0.2891 1.125,0 1.7109,0.6953 0.586,0.6953 0.586,2.0547 z m 5.0781,-1.8437 q -0.8594,0 -1.3672,0.6797 -0.5078,0.6796 -0.5078,1.8515 0,1.1875 0.5,1.8594 0.5,0.6719 1.375,0.6719 0.8593,0 1.3672,-0.6797 0.5078,-0.6797 0.5078,-1.8516 0,-1.1562 -0.5078,-1.8437 -0.5079,-0.6875 -1.3672,-0.6875 z m 0,-0.9063 q 1.4062,0 2.2109,0.9141 0.8047,0.914 0.8047,2.5234 0,1.6094 -0.8047,2.5313 -0.8047,0.9218 -2.2109,0.9218 -1.4063,0 -2.211,-0.9218 -0.8047,-0.9219 -0.8047,-2.5313 0,-1.6094 0.8047,-2.5234 0.8047,-0.9141 2.211,-0.9141 z m 9.7812,1.1563 0,-3.5625 1.0781,0 0,9.125 -1.0781,0 0,-0.9844 q -0.3437,0.5781 -0.8593,0.8672 -0.5157,0.289 -1.25,0.289 -1.1876,0 -1.9376,-0.9531 -0.75,-0.9531 -0.75,-2.5 0,-1.5469 0.75,-2.4922 0.75,-0.9453 1.9376,-0.9453 0.7343,0 1.25,0.2813 0.5156,0.2812 0.8593,0.875 z m -3.6719,2.2812 q 0,1.1875 0.4844,1.8672 0.4844,0.6797 1.3438,0.6797 0.8594,0 1.3515,-0.6797 0.4922,-0.6797 0.4922,-1.8672 0,-1.1875 -0.4922,-1.8594 -0.4921,-0.6718 -1.3515,-0.6718 -0.8594,0 -1.3438,0.6718 -0.4844,0.6719 -0.4844,1.8594 z m 12.9688,-0.2656 0,0.5156 -4.9688,0 q 0.0782,1.125 0.6797,1.7031 0.6016,0.5782 1.6641,0.5782 0.625,0 1.2109,-0.1485 0.586,-0.1484 1.1641,-0.4609 l 0,1.0312 q -0.5938,0.2344 -1.2031,0.3672 -0.6094,0.1328 -1.2344,0.1328 -1.5625,0 -2.4844,-0.914 -0.9219,-0.9141 -0.9219,-2.4766 0,-1.6094 0.875,-2.5547 0.875,-0.9453 2.3438,-0.9453 1.3281,0 2.1016,0.8516 0.7734,0.8515 0.7734,2.3203 z m -1.0781,-0.3281 q -0.0157,-0.875 -0.5,-1.4063 -0.4844,-0.5312 -1.2813,-0.5312 -0.9062,0 -1.4453,0.5156 -0.5391,0.5156 -0.6172,1.4375 l 3.8438,-0.0156 z m 8.9219,-0.0938 0,3.9688 -1.0782,0 0,-3.9219 q 0,-0.9375 -0.3672,-1.3984 -0.3672,-0.461 -1.0859,-0.461 -0.875,0 -1.3828,0.5547 -0.5078,0.5547 -0.5078,1.5234 l 0,3.7032 -1.0781,0 0,-6.5625 1.0781,0 0,1.0156 q 0.3906,-0.5938 0.914,-0.8828 0.5235,-0.2891 1.211,-0.2891 1.125,0 1.7109,0.6953 0.586,0.6953 0.586,2.0547 z m 5.5156,0.6719 q -1.2969,0 -1.8047,0.2969 -0.5078,0.2968 -0.5078,1.0156 0,0.5781 0.3828,0.9141 0.3828,0.3359 1.0234,0.3359 0.9063,0 1.4453,-0.6328 0.5391,-0.6328 0.5391,-1.6953 l 0,-0.2344 -1.0781,0 z m 2.1562,-0.4531 0,3.75 -1.0781,0 0,-1 q -0.375,0.5937 -0.9219,0.8828 -0.5468,0.289 -1.3437,0.289 -1.0157,0 -1.6094,-0.5703 -0.5937,-0.5703 -0.5937,-1.5078 0,-1.1094 0.7421,-1.6719 0.7422,-0.5625 2.211,-0.5625 l 1.5156,0 0,-0.1093 q 0,-0.75 -0.4922,-1.1563 -0.4922,-0.4062 -1.3672,-0.4062 -0.5625,0 -1.1015,0.1406 -0.5391,0.1406 -1.0235,0.4062 l 0,-1 q 0.5938,-0.2343 1.1485,-0.3437 0.5546,-0.1094 1.0859,-0.1094 1.4219,0 2.125,0.7344 0.7031,0.7344 0.7031,2.2344 z m 7.9688,-1.5469 q 0.4062,-0.7344 0.9687,-1.0781 0.5625,-0.3438 1.3281,-0.3438 1.0313,0 1.586,0.7188 0.5547,0.7187 0.5547,2.0312 l 0,3.9688 -1.0781,0 0,-3.9219 q 0,-0.9531 -0.336,-1.4063 -0.3359,-0.4531 -1.0234,-0.4531 -0.8438,0 -1.3282,0.5547 -0.4843,0.5547 -0.4843,1.5234 l 0,3.7032 -1.0781,0 0,-3.9219 q 0,-0.9531 -0.336,-1.4063 -0.3359,-0.4531 -1.039,-0.4531 -0.8282,0 -1.3126,0.5547 -0.4843,0.5547 -0.4843,1.5234 l 0,3.7032 -1.0781,0 0,-6.5625 1.0781,0 0,1.0156 q 0.375,-0.5938 0.8906,-0.8828 0.5156,-0.2891 1.2187,-0.2891 0.7188,0 1.2188,0.3594 0.5,0.3594 0.7344,1.0625 z m 11.5156,1.75 0,0.5156 -4.9688,0 q 0.0782,1.125 0.6797,1.7031 0.6016,0.5782 1.6641,0.5782 0.625,0 1.2109,-0.1485 0.586,-0.1484 1.1641,-0.4609 l 0,1.0312 q -0.5938,0.2344 -1.2031,0.3672 -0.6094,0.1328 -1.2344,0.1328 -1.5625,0 -2.4844,-0.914 -0.9219,-0.9141 -0.9219,-2.4766 0,-1.6094 0.875,-2.5547 0.875,-0.9453 2.3438,-0.9453 1.3281,0 2.1016,0.8516 0.7734,0.8515 0.7734,2.3203 z m -1.0781,-0.3281 q -0.0157,-0.875 -0.5,-1.4063 -0.4844,-0.5312 -1.2813,-0.5312 -0.9062,0 -1.4453,0.5156 -0.5391,0.5156 -0.6172,1.4375 l 3.8438,-0.0156 z m 10.4375,0.5781 q -1.2969,0 -1.8047,0.2969 -0.5078,0.2968 -0.5078,1.0156 0,0.5781 0.3828,0.9141 0.3828,0.3359 1.0234,0.3359 0.9063,0 1.4453,-0.6328 0.5391,-0.6328 0.5391,-1.6953 l 0,-0.2344 -1.0781,0 z m 2.1562,-0.4531 0,3.75 -1.0781,0 0,-1 q -0.375,0.5937 -0.9219,0.8828 -0.5468,0.289 -1.3437,0.289 -1.0157,0 -1.6094,-0.5703 -0.5937,-0.5703 -0.5937,-1.5078 0,-1.1094 0.7421,-1.6719 0.7422,-0.5625 2.211,-0.5625 l 1.5156,0 0,-0.1093 q 0,-0.75 -0.4922,-1.1563 -0.4922,-0.4062 -1.3672,-0.4062 -0.5625,0 -1.1015,0.1406 -0.5391,0.1406 -1.0235,0.4062 l 0,-1 q 0.5938,-0.2343 1.1485,-0.3437 0.5546,-0.1094 1.0859,-0.1094 1.4219,0 2.125,0.7344 0.7031,0.7344 0.7031,2.2344 z m 8.3282,-0.2188 0,3.9688 -1.0782,0 0,-3.9219 q 0,-0.9375 -0.3672,-1.3984 -0.3672,-0.461 -1.0859,-0.461 -0.875,0 -1.3828,0.5547 -0.5078,0.5547 -0.5078,1.5234 l 0,3.7032 -1.0781,0 0,-6.5625 1.0781,0 0,1.0156 q 0.3906,-0.5938 0.914,-0.8828 0.5235,-0.2891 1.211,-0.2891 1.125,0 1.7109,0.6953 0.586,0.6953 0.586,2.0547 z m 6.8593,-1.5937 0,-3.5625 1.0781,0 0,9.125 -1.0781,0 0,-0.9844 q -0.3437,0.5781 -0.8593,0.8672 -0.5157,0.289 -1.25,0.289 -1.1876,0 -1.9376,-0.9531 -0.75,-0.9531 -0.75,-2.5 0,-1.5469 0.75,-2.4922 0.75,-0.9453 1.9376,-0.9453 0.7343,0 1.25,0.2813 0.5156,0.2812 0.8593,0.875 z m -3.6719,2.2812 q 0,1.1875 0.4844,1.8672 0.4844,0.6797 1.3438,0.6797 0.8594,0 1.3515,-0.6797 0.4922,-0.6797 0.4922,-1.8672 0,-1.1875 -0.4922,-1.8594 -0.4921,-0.6718 -1.3515,-0.6718 -0.8594,0 -1.3438,0.6718 -0.4844,0.6719 -0.4844,1.8594 z"
         clip-path="url(#clipPath12)"
         id="path197"
         inkscape:connector-curvature="0"
         style="stroke:none" />
      <path
         d="m 44.1719,18.9536 1.7656,0 2.2344,5.9531 2.25,-5.9531 1.7656,0 0,8.75 -1.1563,0 0,-7.6875 -2.2656,6 -1.1875,0 -2.25,-6 0,7.6875 -1.1562,0 0,-8.75 z m 12.9375,1.1718 -1.6094,4.3438 3.2188,0 -1.6094,-4.3438 z m -0.6719,-1.1718 1.3437,0 3.3282,8.75 -1.2344,0 -0.7969,-2.25 -3.9375,0 -0.7968,2.25 -1.25,0 3.3437,-8.75 z m 12.2969,0.6718 0,1.25 q -0.6094,-0.5625 -1.2813,-0.8359 -0.6719,-0.2734 -1.4375,-0.2734 -1.5,0 -2.2968,0.9218 -0.7969,0.9219 -0.7969,2.6563 0,1.7187 0.7969,2.6406 0.7968,0.9219 2.2968,0.9219 0.7656,0 1.4375,-0.2813 0.6719,-0.2812 1.2813,-0.8281 l 0,1.2344 q -0.625,0.4219 -1.3203,0.6328 -0.6953,0.2109 -1.461,0.2109 -2,0 -3.1406,-1.2187 -1.1406,-1.2188 -1.1406,-3.3125 0,-2.1094 1.1406,-3.3281 1.1406,-1.2188 3.1406,-1.2188 0.7813,0 1.4766,0.211 0.6953,0.2109 1.3047,0.6171 z m 8.375,4.7813 q -1.2969,0 -1.8047,0.2969 -0.5078,0.2968 -0.5078,1.0156 0,0.5781 0.3828,0.9141 0.3828,0.3359 1.0234,0.3359 0.9063,0 1.4453,-0.6328 0.5391,-0.6328 0.5391,-1.6953 l 0,-0.2344 -1.0781,0 z m 2.1562,-0.4531 0,3.75 -1.0781,0 0,-1 q -0.375,0.5937 -0.9219,0.8828 -0.5468,0.289 -1.3437,0.289 -1.0157,0 -1.6094,-0.5703 -0.5937,-0.5703 -0.5937,-1.5078 0,-1.1094 0.7421,-1.6719 0.7422,-0.5625 2.211,-0.5625 l 1.5156,0 0,-0.1093 q 0,-0.75 -0.4922,-1.1563 -0.4922,-0.4062 -1.3672,-0.4062 -0.5625,0 -1.1015,0.1406 -0.5391,0.1406 -1.0235,0.4062 l 0,-1 q 0.5938,-0.2343 1.1485,-0.3437 0.5546,-0.1094 1.0859,-0.1094 1.4219,0 2.125,0.7344 0.7031,0.7344 0.7031,2.2344 z m 7.1875,-1.8125 0,-3.5625 1.0781,0 0,9.125 -1.0781,0 0,-0.9844 q -0.3437,0.5781 -0.8593,0.8672 -0.5157,0.289 -1.25,0.289 -1.1876,0 -1.9376,-0.9531 -0.75,-0.9531 -0.75,-2.5 0,-1.5469 0.75,-2.4922 0.75,-0.9453 1.9376,-0.9453 0.7343,0 1.25,0.2813 0.5156,0.2812 0.8593,0.875 z m -3.6719,2.2812 q 0,1.1875 0.4844,1.8672 0.4844,0.6797 1.3438,0.6797 0.8594,0 1.3515,-0.6797 0.4922,-0.6797 0.4922,-1.8672 0,-1.1875 -0.4922,-1.8594 -0.4921,-0.6718 -1.3515,-0.6718 -0.8594,0 -1.3438,0.6718 -0.4844,0.6719 -0.4844,1.8594 z m 11.6719,-2.2812 0,-3.5625 1.0781,0 0,9.125 -1.0781,0 0,-0.9844 q -0.3437,0.5781 -0.8593,0.8672 -0.5157,0.289 -1.25,0.289 -1.1876,0 -1.9376,-0.9531 -0.75,-0.9531 -0.75,-2.5 0,-1.5469 0.75,-2.4922 0.75,-0.9453 1.9376,-0.9453 0.7343,0 1.25,0.2813 0.5156,0.2812 0.8593,0.875 z m -3.6719,2.2812 q 0,1.1875 0.4844,1.8672 0.4844,0.6797 1.3438,0.6797 0.8594,0 1.3515,-0.6797 0.4922,-0.6797 0.4922,-1.8672 0,-1.1875 -0.4922,-1.8594 -0.4921,-0.6718 -1.3515,-0.6718 -0.8594,0 -1.3438,0.6718 -0.4844,0.6719 -0.4844,1.8594 z m 11.1563,-2.2812 q -0.1875,-0.0938 -0.3984,-0.1485 -0.211,-0.0547 -0.4766,-0.0547 -0.9063,0 -1.3984,0.5938 -0.4922,0.5937 -0.4922,1.7187 l 0,3.4532 -1.0781,0 0,-6.5625 1.0781,0 0,1.0156 q 0.3437,-0.5938 0.8906,-0.8828 0.5469,-0.2891 1.3281,-0.2891 0.1094,0 0.2422,0.0156 0.1328,0.0157 0.2891,0.0469 l 0.0156,1.0938 z m 6.8125,2.0156 0,0.5156 -4.9688,0 q 0.0782,1.125 0.6797,1.7031 0.6016,0.5782 1.6641,0.5782 0.625,0 1.2109,-0.1485 0.586,-0.1484 1.1641,-0.4609 l 0,1.0312 q -0.5938,0.2344 -1.2031,0.3672 -0.6094,0.1328 -1.2344,0.1328 -1.5625,0 -2.4844,-0.914 -0.9219,-0.9141 -0.9219,-2.4766 0,-1.6094 0.875,-2.5547 0.875,-0.9453 2.3438,-0.9453 1.3281,0 2.1016,0.8516 0.7734,0.8515 0.7734,2.3203 z m -1.0781,-0.3281 q -0.0157,-0.875 -0.5,-1.4063 -0.4844,-0.5312 -1.2813,-0.5312 -0.9062,0 -1.4453,0.5156 -0.5391,0.5156 -0.6172,1.4375 l 3.8438,-0.0156 z m 7.6406,-2.5 0,1.0312 q -0.4531,-0.2344 -0.9453,-0.3515 -0.4922,-0.1172 -1.0234,-0.1172 -0.7969,0 -1.2032,0.2422 -0.4062,0.2421 -0.4062,0.7421 0,0.375 0.289,0.586 0.2891,0.2109 1.1641,0.3984 l 0.3594,0.0938 q 1.1562,0.2343 1.6406,0.6875 0.4844,0.4531 0.4844,1.25 0,0.9218 -0.7266,1.4531 -0.7265,0.5312 -1.9922,0.5312 -0.5312,0 -1.1015,-0.1015 -0.5704,-0.1016 -1.1954,-0.3047 l 0,-1.125 q 0.5938,0.3125 1.1719,0.4687 0.5781,0.1563 1.1563,0.1563 0.75,0 1.164,-0.2578 0.4141,-0.2578 0.4141,-0.7422 0,-0.4375 -0.2969,-0.6719 -0.2968,-0.2344 -1.2968,-0.4531 l -0.375,-0.0781 q -1,-0.2188 -1.4454,-0.6563 -0.4453,-0.4375 -0.4453,-1.1875 0,-0.9375 0.6563,-1.4375 0.6562,-0.5 1.8594,-0.5 0.5937,0 1.125,0.086 0.5312,0.0859 0.9687,0.2578 z m 7,0 0,1.0312 q -0.4531,-0.2344 -0.9453,-0.3515 -0.4922,-0.1172 -1.0234,-0.1172 -0.7969,0 -1.2032,0.2422 -0.4062,0.2421 -0.4062,0.7421 0,0.375 0.289,0.586 0.2891,0.2109 1.1641,0.3984 l 0.3594,0.0938 q 1.1562,0.2343 1.6406,0.6875 0.4844,0.4531 0.4844,1.25 0,0.9218 -0.7266,1.4531 -0.7265,0.5312 -1.9922,0.5312 -0.5312,0 -1.1015,-0.1015 -0.5704,-0.1016 -1.1954,-0.3047 l 0,-1.125 q 0.5938,0.3125 1.1719,0.4687 0.5781,0.1563 1.1563,0.1563 0.75,0 1.164,-0.2578 0.4141,-0.2578 0.4141,-0.7422 0,-0.4375 -0.2969,-0.6719 -0.2968,-0.2344 -1.2968,-0.4531 l -0.375,-0.0781 q -1,-0.2188 -1.4454,-0.6563 -0.4453,-0.4375 -0.4453,-1.1875 0,-0.9375 0.6563,-1.4375 0.6562,-0.5 1.8594,-0.5 0.5937,0 1.125,0.086 0.5312,0.0859 0.9687,0.2578 z m 3.0937,4.8906 1.2344,0 0,1 -0.9531,1.875 -0.7656,0 0.4843,-1.875 0,-1 z"
         clip-path="url(#clipPath12)"
         id="path199"
         inkscape:connector-curvature="0"
         style="stroke:none" />
      <circle
         r="4"
         clip-path="url(#clipPath12)"
         cx="34"
         cy="38"
         id="circle201"
         d="m 38,38 c 0,2.209139 -1.790861,4 -4,4 -2.209139,0 -4,-1.790861 -4,-4 0,-2.209139 1.790861,-4 4,-4 2.209139,0 4,1.790861 4,4 z"
         sodipodi:cx="34"
         sodipodi:cy="38"
         sodipodi:rx="4"
         sodipodi:ry="4"
         style="stroke:none" />
      <path
         d="m 48.3125,35.3286 0,1.0312 q -0.4531,-0.2344 -0.9453,-0.3515 -0.4922,-0.1172 -1.0234,-0.1172 -0.7969,0 -1.2032,0.2422 -0.4062,0.2421 -0.4062,0.7421 0,0.375 0.289,0.586 0.2891,0.2109 1.1641,0.3984 l 0.3594,0.0938 q 1.1562,0.2343 1.6406,0.6875 0.4844,0.4531 0.4844,1.25 0,0.9218 -0.7266,1.4531 -0.7265,0.5312 -1.9922,0.5312 -0.5312,0 -1.1015,-0.1015 -0.5704,-0.1016 -1.1954,-0.3047 l 0,-1.125 q 0.5938,0.3125 1.1719,0.4687 0.5781,0.1563 1.1563,0.1563 0.75,0 1.164,-0.2578 0.4141,-0.2578 0.4141,-0.7422 0,-0.4375 -0.2969,-0.6719 -0.2968,-0.2344 -1.2968,-0.4531 l -0.375,-0.0781 q -1,-0.2188 -1.4454,-0.6563 -0.4453,-0.4375 -0.4453,-1.1875 0,-0.9375 0.6563,-1.4375 0.6562,-0.5 1.8594,-0.5 0.5937,0 1.125,0.086 0.5312,0.0859 0.9687,0.2578 z m 8.4375,2.8281 0,0.5156 -4.9688,0 q 0.0782,1.125 0.6797,1.7031 0.6016,0.5782 1.6641,0.5782 0.625,0 1.2109,-0.1485 0.586,-0.1484 1.1641,-0.4609 l 0,1.0312 q -0.5938,0.2344 -1.2031,0.3672 -0.6094,0.1328 -1.2344,0.1328 -1.5625,0 -2.4844,-0.914 -0.9219,-0.9141 -0.9219,-2.4766 0,-1.6094 0.875,-2.5547 0.875,-0.9453 2.3438,-0.9453 1.3281,0 2.1016,0.8516 0.7734,0.8515 0.7734,2.3203 z m -1.0781,-0.3281 q -0.0157,-0.875 -0.5,-1.4063 -0.4844,-0.5312 -1.2813,-0.5312 -0.9062,0 -1.4453,0.5156 -0.5391,0.5156 -0.6172,1.4375 l 3.8438,-0.0156 z m 7.6406,-2.5 0,1.0312 q -0.4531,-0.2344 -0.9453,-0.3515 -0.4922,-0.1172 -1.0234,-0.1172 -0.7969,0 -1.2032,0.2422 -0.4062,0.2421 -0.4062,0.7421 0,0.375 0.289,0.586 0.2891,0.2109 1.1641,0.3984 l 0.3594,0.0938 q 1.1562,0.2343 1.6406,0.6875 0.4844,0.4531 0.4844,1.25 0,0.9218 -0.7266,1.4531 -0.7265,0.5312 -1.9922,0.5312 -0.5312,0 -1.1015,-0.1015 -0.5704,-0.1016 -1.1954,-0.3047 l 0,-1.125 q 0.5938,0.3125 1.1719,0.4687 0.5781,0.1563 1.1563,0.1563 0.75,0 1.164,-0.2578 0.4141,-0.2578 0.4141,-0.7422 0,-0.4375 -0.2969,-0.6719 -0.2968,-0.2344 -1.2968,-0.4531 l -0.375,-0.0781 q -1,-0.2188 -1.4454,-0.6563 -0.4453,-0.4375 -0.4453,-1.1875 0,-0.9375 0.6563,-1.4375 0.6562,-0.5 1.8594,-0.5 0.5937,0 1.125,0.086 0.5312,0.0859 0.9687,0.2578 z m 7,0 0,1.0312 q -0.4531,-0.2344 -0.9453,-0.3515 -0.4922,-0.1172 -1.0234,-0.1172 -0.7969,0 -1.2032,0.2422 -0.4062,0.2421 -0.4062,0.7421 0,0.375 0.289,0.586 0.2891,0.2109 1.1641,0.3984 l 0.3594,0.0938 q 1.1562,0.2343 1.6406,0.6875 0.4844,0.4531 0.4844,1.25 0,0.9218 -0.7266,1.4531 -0.7265,0.5312 -1.9922,0.5312 -0.5312,0 -1.1015,-0.1015 -0.5704,-0.1016 -1.1954,-0.3047 l 0,-1.125 q 0.5938,0.3125 1.1719,0.4687 0.5781,0.1563 1.1563,0.1563 0.75,0 1.164,-0.2578 0.4141,-0.2578 0.4141,-0.7422 0,-0.4375 -0.2969,-0.6719 -0.2968,-0.2344 -1.2968,-0.4531 l -0.375,-0.0781 q -1,-0.2188 -1.4454,-0.6563 -0.4453,-0.4375 -0.4453,-1.1875 0,-0.9375 0.6563,-1.4375 0.6562,-0.5 1.8594,-0.5 0.5937,0 1.125,0.086 0.5312,0.0859 0.9687,0.2578 z m 2.8125,-0.1875 1.0781,0 0,6.5625 -1.0781,0 0,-6.5625 z m 0,-2.5625 1.0781,0 0,1.375 -1.0781,0 0,-1.375 z m 5.5469,3.3125 q -0.8594,0 -1.3672,0.6797 -0.5078,0.6796 -0.5078,1.8515 0,1.1875 0.5,1.8594 0.5,0.6719 1.375,0.6719 0.8593,0 1.3672,-0.6797 0.5078,-0.6797 0.5078,-1.8516 0,-1.1562 -0.5078,-1.8437 -0.5079,-0.6875 -1.3672,-0.6875 z m 0,-0.9063 q 1.4062,0 2.2109,0.9141 0.8047,0.914 0.8047,2.5234 0,1.6094 -0.8047,2.5313 -0.8047,0.9218 -2.2109,0.9218 -1.4063,0 -2.211,-0.9218 -0.8047,-0.9219 -0.8047,-2.5313 0,-1.6094 0.8047,-2.5234 0.8047,-0.9141 2.211,-0.9141 z m 10.9219,2.75 0,3.9688 -1.0782,0 0,-3.9219 q 0,-0.9375 -0.3672,-1.3984 -0.3672,-0.461 -1.0859,-0.461 -0.875,0 -1.3828,0.5547 -0.5078,0.5547 -0.5078,1.5234 l 0,3.7032 -1.0781,0 0,-6.5625 1.0781,0 0,1.0156 q 0.3906,-0.5938 0.914,-0.8828 0.5235,-0.2891 1.211,-0.2891 1.125,0 1.7109,0.6953 0.586,0.6953 0.586,2.0547 z m 10.7187,-2.4062 0,1.0312 q -0.4531,-0.2344 -0.9453,-0.3515 -0.4922,-0.1172 -1.0234,-0.1172 -0.7969,0 -1.2032,0.2422 -0.4062,0.2421 -0.4062,0.7421 0,0.375 0.289,0.586 0.2891,0.2109 1.1641,0.3984 l 0.3594,0.0938 q 1.1562,0.2343 1.6406,0.6875 0.4844,0.4531 0.4844,1.25 0,0.9218 -0.7266,1.4531 -0.7265,0.5312 -1.9922,0.5312 -0.5312,0 -1.1015,-0.1015 -0.5704,-0.1016 -1.1954,-0.3047 l 0,-1.125 q 0.5938,0.3125 1.1719,0.4687 0.5781,0.1563 1.1563,0.1563 0.75,0 1.164,-0.2578 0.4141,-0.2578 0.4141,-0.7422 0,-0.4375 -0.2969,-0.6719 -0.2968,-0.2344 -1.2968,-0.4531 l -0.375,-0.0781 q -1,-0.2188 -1.4454,-0.6563 -0.4453,-0.4375 -0.4453,-1.1875 0,-0.9375 0.6563,-1.4375 0.6562,-0.5 1.8594,-0.5 0.5937,0 1.125,0.086 0.5312,0.0859 0.9687,0.2578 z m 3.8906,-2.0469 0,1.8594 2.2188,0 0,0.8437 -2.2188,0 0,3.5625 q 0,0.7969 0.2188,1.0235 0.2187,0.2265 0.8906,0.2265 l 1.1094,0 0,0.9063 -1.1094,0 q -1.25,0 -1.7266,-0.4688 -0.4765,-0.4687 -0.4765,-1.6875 l 0,-3.5625 -0.7813,0 0,-0.8437 0.7813,0 0,-1.8594 1.0937,0 z m 6.9063,5.125 q -1.2969,0 -1.8047,0.2969 -0.5078,0.2968 -0.5078,1.0156 0,0.5781 0.3828,0.9141 0.3828,0.3359 1.0234,0.3359 0.9063,0 1.4453,-0.6328 0.5391,-0.6328 0.5391,-1.6953 l 0,-0.2344 -1.0781,0 z m 2.1562,-0.4531 0,3.75 -1.0781,0 0,-1 q -0.375,0.5937 -0.9219,0.8828 -0.5468,0.289 -1.3437,0.289 -1.0157,0 -1.6094,-0.5703 -0.5937,-0.5703 -0.5937,-1.5078 0,-1.1094 0.7421,-1.6719 0.7422,-0.5625 2.211,-0.5625 l 1.5156,0 0,-0.1093 q 0,-0.75 -0.4922,-1.1563 -0.4922,-0.4062 -1.3672,-0.4062 -0.5625,0 -1.1015,0.1406 -0.5391,0.1406 -1.0235,0.4062 l 0,-1 q 0.5938,-0.2343 1.1485,-0.3437 0.5546,-0.1094 1.0859,-0.1094 1.4219,0 2.125,0.7344 0.7031,0.7344 0.7031,2.2344 z m 6.6719,-1.8125 q -0.1875,-0.0938 -0.3984,-0.1485 -0.211,-0.0547 -0.4766,-0.0547 -0.9063,0 -1.3984,0.5938 -0.4922,0.5937 -0.4922,1.7187 l 0,3.4532 -1.0781,0 0,-6.5625 1.0781,0 0,1.0156 q 0.3437,-0.5938 0.8906,-0.8828 0.5469,-0.2891 1.3281,-0.2891 0.1094,0 0.2422,0.0156 0.1328,0.0157 0.2891,0.0469 l 0.0156,1.0938 z m 2.2656,-2.8594 0,1.8594 2.2188,0 0,0.8437 -2.2188,0 0,3.5625 q 0,0.7969 0.2188,1.0235 0.2187,0.2265 0.8906,0.2265 l 1.1094,0 0,0.9063 -1.1094,0 q -1.25,0 -1.7266,-0.4688 -0.4765,-0.4687 -0.4765,-1.6875 l 0,-3.5625 -0.7813,0 0,-0.8437 0.7813,0 0,-1.8594 1.0937,0 z m 11.7344,2.8594 q -0.1875,-0.0938 -0.3984,-0.1485 -0.211,-0.0547 -0.4766,-0.0547 -0.9063,0 -1.3984,0.5938 -0.4922,0.5937 -0.4922,1.7187 l 0,3.4532 -1.0781,0 0,-6.5625 1.0781,0 0,1.0156 q 0.3437,-0.5938 0.8906,-0.8828 0.5469,-0.2891 1.3281,-0.2891 0.1094,0 0.2422,0.0156 0.1328,0.0157 0.2891,0.0469 l 0.0156,1.0938 z m 6.8125,2.0156 0,0.5156 -4.9688,0 q 0.0782,1.125 0.6797,1.7031 0.6016,0.5782 1.6641,0.5782 0.625,0 1.2109,-0.1485 0.586,-0.1484 1.1641,-0.4609 l 0,1.0312 q -0.5938,0.2344 -1.2031,0.3672 -0.6094,0.1328 -1.2344,0.1328 -1.5625,0 -2.4844,-0.914 -0.9219,-0.9141 -0.9219,-2.4766 0,-1.6094 0.875,-2.5547 0.875,-0.9453 2.3438,-0.9453 1.3281,0 2.1016,0.8516 0.7734,0.8515 0.7734,2.3203 z m -1.0781,-0.3281 q -0.0157,-0.875 -0.5,-1.4063 -0.4844,-0.5312 -1.2813,-0.5312 -0.9062,0 -1.4453,0.5156 -0.5391,0.5156 -0.6172,1.4375 l 3.8438,-0.0156 z m 6.4375,0.5781 q -1.2969,0 -1.8047,0.2969 -0.5078,0.2968 -0.5078,1.0156 0,0.5781 0.3828,0.9141 0.3828,0.3359 1.0234,0.3359 0.9063,0 1.4453,-0.6328 0.5391,-0.6328 0.5391,-1.6953 l 0,-0.2344 -1.0781,0 z m 2.1562,-0.4531 0,3.75 -1.0781,0 0,-1 q -0.375,0.5937 -0.9219,0.8828 -0.5468,0.289 -1.3437,0.289 -1.0157,0 -1.6094,-0.5703 -0.5937,-0.5703 -0.5937,-1.5078 0,-1.1094 0.7421,-1.6719 0.7422,-0.5625 2.211,-0.5625 l 1.5156,0 0,-0.1093 q 0,-0.75 -0.4922,-1.1563 -0.4922,-0.4062 -1.3672,-0.4062 -0.5625,0 -1.1015,0.1406 -0.5391,0.1406 -1.0235,0.4062 l 0,-1 q 0.5938,-0.2343 1.1485,-0.3437 0.5546,-0.1094 1.0859,-0.1094 1.4219,0 2.125,0.7344 0.7031,0.7344 0.7031,2.2344 z m 7.0469,-2.625 0,1.0312 q -0.4531,-0.2344 -0.9453,-0.3515 -0.4922,-0.1172 -1.0234,-0.1172 -0.7969,0 -1.2032,0.2422 -0.4062,0.2421 -0.4062,0.7421 0,0.375 0.289,0.586 0.2891,0.2109 1.1641,0.3984 l 0.3594,0.0938 q 1.1562,0.2343 1.6406,0.6875 0.4844,0.4531 0.4844,1.25 0,0.9218 -0.7266,1.4531 -0.7265,0.5312 -1.9922,0.5312 -0.5312,0 -1.1015,-0.1015 -0.5704,-0.1016 -1.1954,-0.3047 l 0,-1.125 q 0.5938,0.3125 1.1719,0.4687 0.5781,0.1563 1.1563,0.1563 0.75,0 1.164,-0.2578 0.4141,-0.2578 0.4141,-0.7422 0,-0.4375 -0.2969,-0.6719 -0.2968,-0.2344 -1.2968,-0.4531 l -0.375,-0.0781 q -1,-0.2188 -1.4454,-0.6563 -0.4453,-0.4375 -0.4453,-1.1875 0,-0.9375 0.6563,-1.4375 0.6562,-0.5 1.8594,-0.5 0.5937,0 1.125,0.086 0.5312,0.0859 0.9687,0.2578 z m 5.3594,0.5625 q -0.8594,0 -1.3672,0.6797 -0.5078,0.6796 -0.5078,1.8515 0,1.1875 0.5,1.8594 0.5,0.6719 1.375,0.6719 0.8593,0 1.3672,-0.6797 0.5078,-0.6797 0.5078,-1.8516 0,-1.1562 -0.5078,-1.8437 -0.5079,-0.6875 -1.3672,-0.6875 z m 0,-0.9063 q 1.4062,0 2.2109,0.9141 0.8047,0.914 0.8047,2.5234 0,1.6094 -0.8047,2.5313 -0.8047,0.9218 -2.2109,0.9218 -1.4063,0 -2.211,-0.9218 -0.8047,-0.9219 -0.8047,-2.5313 0,-1.6094 0.8047,-2.5234 0.8047,-0.9141 2.211,-0.9141 z m 10.9219,2.75 0,3.9688 -1.0782,0 0,-3.9219 q 0,-0.9375 -0.3672,-1.3984 -0.3672,-0.461 -1.0859,-0.461 -0.875,0 -1.3828,0.5547 -0.5078,0.5547 -0.5078,1.5234 l 0,3.7032 -1.0781,0 0,-6.5625 1.0781,0 0,1.0156 q 0.3906,-0.5938 0.914,-0.8828 0.5235,-0.2891 1.211,-0.2891 1.125,0 1.7109,0.6953 0.586,0.6953 0.586,2.0547 z m 2.8124,2.4844 1.2344,0 0,1 -0.9531,1.875 -0.7656,0 0.4843,-1.875 0,-1 z"
         clip-path="url(#clipPath12)"
         id="path203"
         inkscape:connector-curvature="0"
         style="stroke:none" />
      <circle
         r="4"
         clip-path="url(#clipPath12)"
         cx="34"
         cy="52"
         id="circle205"
         d="m 38,52 c 0,2.209139 -1.790861,4 -4,4 -2.209139,0 -4,-1.790861 -4,-4 0,-2.209139 1.790861,-4 4,-4 2.209139,0 4,1.790861 4,4 z"
         sodipodi:cx="34"
         sodipodi:cy="52"
         sodipodi:rx="4"
         sodipodi:ry="4"
         style="stroke:none" />
      <path
         d="m 48.4531,50.1411 0,-3.5625 1.0781,0 0,9.125 -1.0781,0 0,-0.9844 q -0.3437,0.5781 -0.8593,0.8672 -0.5157,0.289 -1.25,0.289 -1.1876,0 -1.9376,-0.9531 -0.75,-0.9531 -0.75,-2.5 0,-1.5469 0.75,-2.4922 0.75,-0.9453 1.9376,-0.9453 0.7343,0 1.25,0.2813 0.5156,0.2812 0.8593,0.875 z m -3.6719,2.2812 q 0,1.1875 0.4844,1.8672 0.4844,0.6797 1.3438,0.6797 0.8594,0 1.3515,-0.6797 0.4922,-0.6797 0.4922,-1.8672 0,-1.1875 -0.4922,-1.8594 -0.4921,-0.6718 -1.3515,-0.6718 -0.8594,0 -1.3438,0.6718 -0.4844,0.6719 -0.4844,1.8594 z m 12.9688,-0.2656 0,0.5156 -4.9688,0 q 0.0782,1.125 0.6797,1.7031 0.6016,0.5782 1.6641,0.5782 0.625,0 1.2109,-0.1485 0.586,-0.1484 1.1641,-0.4609 l 0,1.0312 q -0.5938,0.2344 -1.2031,0.3672 -0.6094,0.1328 -1.2344,0.1328 -1.5625,0 -2.4844,-0.914 -0.9219,-0.9141 -0.9219,-2.4766 0,-1.6094 0.875,-2.5547 0.875,-0.9453 2.3438,-0.9453 1.3281,0 2.1016,0.8516 0.7734,0.8515 0.7734,2.3203 z m -1.0781,-0.3281 q -0.0157,-0.875 -0.5,-1.4063 -0.4844,-0.5312 -1.2813,-0.5312 -0.9062,0 -1.4453,0.5156 -0.5391,0.5156 -0.6172,1.4375 l 3.8438,-0.0156 z m 2.6875,-2.6875 1.1406,0 2.0469,5.5 2.0625,-5.5 1.1406,0 -2.4688,6.5625 -1.4687,0 -2.4531,-6.5625 z m 6.7656,0 1.0781,0 0,6.5625 -1.0781,0 0,-6.5625 z m 0,-2.5625 1.0781,0 0,1.375 -1.0781,0 0,-1.375 z m 7.7344,2.8125 0,1.0156 q -0.4688,-0.2656 -0.9219,-0.3906 -0.4531,-0.125 -0.9219,-0.125 -1.0625,0 -1.6406,0.664 -0.5781,0.6641 -0.5781,1.8672 0,1.2031 0.5781,1.8672 0.5781,0.6641 1.6406,0.6641 0.4688,0 0.9219,-0.125 0.4531,-0.125 0.9219,-0.375 l 0,1 q -0.4532,0.2031 -0.9375,0.3125 -0.4844,0.1093 -1.0313,0.1093 -1.4844,0 -2.3594,-0.9296 -0.875,-0.9297 -0.875,-2.5235 0,-1.5937 0.8829,-2.5156 0.8828,-0.9219 2.4297,-0.9219 0.4843,0 0.9609,0.1016 0.4765,0.1015 0.9297,0.3047 z m 7.8906,2.7656 0,0.5156 -4.9688,0 q 0.0782,1.125 0.6797,1.7031 0.6016,0.5782 1.6641,0.5782 0.625,0 1.2109,-0.1485 0.586,-0.1484 1.1641,-0.4609 l 0,1.0312 q -0.5938,0.2344 -1.2031,0.3672 -0.6094,0.1328 -1.2344,0.1328 -1.5625,0 -2.4844,-0.914 -0.9219,-0.9141 -0.9219,-2.4766 0,-1.6094 0.875,-2.5547 0.875,-0.9453 2.3438,-0.9453 1.3281,0 2.1016,0.8516 0.7734,0.8515 0.7734,2.3203 z m -1.0781,-0.3281 q -0.0157,-0.875 -0.5,-1.4063 -0.4844,-0.5312 -1.2813,-0.5312 -0.9062,0 -1.4453,0.5156 -0.5391,0.5156 -0.6172,1.4375 l 3.8438,-0.0156 z m 11.6406,-2.5 0,1.0312 q -0.4531,-0.2344 -0.9453,-0.3515 -0.4922,-0.1172 -1.0234,-0.1172 -0.7969,0 -1.2032,0.2422 -0.4062,0.2421 -0.4062,0.7421 0,0.375 0.289,0.586 0.2891,0.2109 1.1641,0.3984 l 0.3594,0.0938 q 1.1562,0.2343 1.6406,0.6875 0.4844,0.4531 0.4844,1.25 0,0.9218 -0.7266,1.4531 -0.7265,0.5312 -1.9922,0.5312 -0.5312,0 -1.1015,-0.1015 -0.5704,-0.1016 -1.1954,-0.3047 l 0,-1.125 q 0.5938,0.3125 1.1719,0.4687 0.5781,0.1563 1.1563,0.1563 0.75,0 1.164,-0.2578 0.4141,-0.2578 0.4141,-0.7422 0,-0.4375 -0.2969,-0.6719 -0.2968,-0.2344 -1.2968,-0.4531 l -0.375,-0.0781 q -1,-0.2188 -1.4454,-0.6563 -0.4453,-0.4375 -0.4453,-1.1875 0,-0.9375 0.6563,-1.4375 0.6562,-0.5 1.8594,-0.5 0.5937,0 1.125,0.086 0.5312,0.0859 0.9687,0.2578 z m 3.8906,-2.0469 0,1.8594 2.2188,0 0,0.8437 -2.2188,0 0,3.5625 q 0,0.7969 0.2188,1.0235 0.2187,0.2265 0.8906,0.2265 l 1.1094,0 0,0.9063 -1.1094,0 q -1.25,0 -1.7266,-0.4688 -0.4765,-0.4687 -0.4765,-1.6875 l 0,-3.5625 -0.7813,0 0,-0.8437 0.7813,0 0,-1.8594 1.0937,0 z m 6.9063,5.125 q -1.2969,0 -1.8047,0.2969 -0.5078,0.2968 -0.5078,1.0156 0,0.5781 0.3828,0.9141 0.3828,0.3359 1.0234,0.3359 0.9063,0 1.4453,-0.6328 0.5391,-0.6328 0.5391,-1.6953 l 0,-0.2344 -1.0781,0 z m 2.1562,-0.4531 0,3.75 -1.0781,0 0,-1 q -0.375,0.5937 -0.9219,0.8828 -0.5468,0.289 -1.3437,0.289 -1.0157,0 -1.6094,-0.5703 -0.5937,-0.5703 -0.5937,-1.5078 0,-1.1094 0.7421,-1.6719 0.7422,-0.5625 2.211,-0.5625 l 1.5156,0 0,-0.1093 q 0,-0.75 -0.4922,-1.1563 -0.4922,-0.4062 -1.3672,-0.4062 -0.5625,0 -1.1015,0.1406 -0.5391,0.1406 -1.0235,0.4062 l 0,-1 q 0.5938,-0.2343 1.1485,-0.3437 0.5546,-0.1094 1.0859,-0.1094 1.4219,0 2.125,0.7344 0.7031,0.7344 0.7031,2.2344 z m 3.9375,-4.6719 0,1.8594 2.2188,0 0,0.8437 -2.2188,0 0,3.5625 q 0,0.7969 0.2188,1.0235 0.2187,0.2265 0.8906,0.2265 l 1.1094,0 0,0.9063 -1.1094,0 q -1.25,0 -1.7266,-0.4688 -0.4765,-0.4687 -0.4765,-1.6875 l 0,-3.5625 -0.7813,0 0,-0.8437 0.7813,0 0,-1.8594 1.0937,0 z m 9.5469,4.875 0,0.5156 -4.9688,0 q 0.0782,1.125 0.6797,1.7031 0.6016,0.5782 1.6641,0.5782 0.625,0 1.2109,-0.1485 0.586,-0.1484 1.1641,-0.4609 l 0,1.0312 q -0.5938,0.2344 -1.2031,0.3672 -0.6094,0.1328 -1.2344,0.1328 -1.5625,0 -2.4844,-0.914 -0.9219,-0.9141 -0.9219,-2.4766 0,-1.6094 0.875,-2.5547 0.875,-0.9453 2.3438,-0.9453 1.3281,0 2.1016,0.8516 0.7734,0.8515 0.7734,2.3203 z m -1.0781,-0.3281 q -0.0157,-0.875 -0.5,-1.4063 -0.4844,-0.5312 -1.2813,-0.5312 -0.9062,0 -1.4453,0.5156 -0.5391,0.5156 -0.6172,1.4375 l 3.8438,-0.0156 z m 10.0469,-5.2344 q -0.7813,1.3437 -1.1641,2.6641 -0.3828,1.3203 -0.3828,2.6796 0,1.3438 0.3828,2.6719 0.3828,1.3281 1.1641,2.6719 l -0.9376,0 q -0.875,-1.375 -1.3124,-2.7031 -0.4376,-1.3282 -0.4376,-2.6407 0,-1.3125 0.4376,-2.6328 0.4374,-1.3203 1.3124,-2.7109 l 0.9376,0 z m 6.2187,3.5469 q -0.1875,-0.0938 -0.3984,-0.1485 -0.211,-0.0547 -0.4766,-0.0547 -0.9063,0 -1.3984,0.5938 -0.4922,0.5937 -0.4922,1.7187 l 0,3.4532 -1.0781,0 0,-6.5625 1.0781,0 0,1.0156 q 0.3437,-0.5938 0.8906,-0.8828 0.5469,-0.2891 1.3281,-0.2891 0.1094,0 0.2422,0.0156 0.1328,0.0157 0.2891,0.0469 l 0.0156,1.0938 z m 6.8125,2.0156 0,0.5156 -4.9688,0 q 0.0782,1.125 0.6797,1.7031 0.6016,0.5782 1.6641,0.5782 0.625,0 1.2109,-0.1485 0.586,-0.1484 1.1641,-0.4609 l 0,1.0312 q -0.5938,0.2344 -1.2031,0.3672 -0.6094,0.1328 -1.2344,0.1328 -1.5625,0 -2.4844,-0.914 -0.9219,-0.9141 -0.9219,-2.4766 0,-1.6094 0.875,-2.5547 0.875,-0.9453 2.3438,-0.9453 1.3281,0 2.1016,0.8516 0.7734,0.8515 0.7734,2.3203 z m -1.0781,-0.3281 q -0.0157,-0.875 -0.5,-1.4063 -0.4844,-0.5312 -1.2813,-0.5312 -0.9062,0 -1.4453,0.5156 -0.5391,0.5156 -0.6172,1.4375 l 3.8438,-0.0156 z m 3.4531,-5.25 1.0781,0 0,9.125 -1.0781,0 0,-9.125 z m 8.625,5.5781 0,0.5156 -4.9688,0 q 0.0782,1.125 0.6797,1.7031 0.6016,0.5782 1.6641,0.5782 0.625,0 1.2109,-0.1485 0.586,-0.1484 1.1641,-0.4609 l 0,1.0312 q -0.5938,0.2344 -1.2031,0.3672 -0.6094,0.1328 -1.2344,0.1328 -1.5625,0 -2.4844,-0.914 -0.9219,-0.9141 -0.9219,-2.4766 0,-1.6094 0.875,-2.5547 0.875,-0.9453 2.3438,-0.9453 1.3281,0 2.1016,0.8516 0.7734,0.8515 0.7734,2.3203 z m -1.0781,-0.3281 q -0.0157,-0.875 -0.5,-1.4063 -0.4844,-0.5312 -1.2813,-0.5312 -0.9062,0 -1.4453,0.5156 -0.5391,0.5156 -0.6172,1.4375 l 3.8438,-0.0156 z m 6.4375,0.5781 q -1.2969,0 -1.8047,0.2969 -0.5078,0.2968 -0.5078,1.0156 0,0.5781 0.3828,0.9141 0.3828,0.3359 1.0234,0.3359 0.9063,0 1.4453,-0.6328 0.5391,-0.6328 0.5391,-1.6953 l 0,-0.2344 -1.0781,0 z m 2.1562,-0.4531 0,3.75 -1.0781,0 0,-1 q -0.375,0.5937 -0.9219,0.8828 -0.5468,0.289 -1.3437,0.289 -1.0157,0 -1.6094,-0.5703 -0.5937,-0.5703 -0.5937,-1.5078 0,-1.1094 0.7421,-1.6719 0.7422,-0.5625 2.211,-0.5625 l 1.5156,0 0,-0.1093 q 0,-0.75 -0.4922,-1.1563 -0.4922,-0.4062 -1.3672,-0.4062 -0.5625,0 -1.1015,0.1406 -0.5391,0.1406 -1.0235,0.4062 l 0,-1 q 0.5938,-0.2343 1.1485,-0.3437 0.5546,-0.1094 1.0859,-0.1094 1.4219,0 2.125,0.7344 0.7031,0.7344 0.7031,2.2344 z m 7.0469,-2.625 0,1.0312 q -0.4531,-0.2344 -0.9453,-0.3515 -0.4922,-0.1172 -1.0234,-0.1172 -0.7969,0 -1.2032,0.2422 -0.4062,0.2421 -0.4062,0.7421 0,0.375 0.289,0.586 0.2891,0.2109 1.1641,0.3984 l 0.3594,0.0938 q 1.1562,0.2343 1.6406,0.6875 0.4844,0.4531 0.4844,1.25 0,0.9218 -0.7266,1.4531 -0.7265,0.5312 -1.9922,0.5312 -0.5312,0 -1.1015,-0.1015 -0.5704,-0.1016 -1.1954,-0.3047 l 0,-1.125 q 0.5938,0.3125 1.1719,0.4687 0.5781,0.1563 1.1563,0.1563 0.75,0 1.164,-0.2578 0.4141,-0.2578 0.4141,-0.7422 0,-0.4375 -0.2969,-0.6719 -0.2968,-0.2344 -1.2968,-0.4531 l -0.375,-0.0781 q -1,-0.2188 -1.4454,-0.6563 -0.4453,-0.4375 -0.4453,-1.1875 0,-0.9375 0.6563,-1.4375 0.6562,-0.5 1.8594,-0.5 0.5937,0 1.125,0.086 0.5312,0.0859 0.9687,0.2578 z m 8.4375,2.8281 0,0.5156 -4.9688,0 q 0.0782,1.125 0.6797,1.7031 0.6016,0.5782 1.6641,0.5782 0.625,0 1.2109,-0.1485 0.586,-0.1484 1.1641,-0.4609 l 0,1.0312 q -0.5938,0.2344 -1.2031,0.3672 -0.6094,0.1328 -1.2344,0.1328 -1.5625,0 -2.4844,-0.914 -0.9219,-0.9141 -0.9219,-2.4766 0,-1.6094 0.875,-2.5547 0.875,-0.9453 2.3438,-0.9453 1.3281,0 2.1016,0.8516 0.7734,0.8515 0.7734,2.3203 z m -1.0781,-0.3281 q -0.0157,-0.875 -0.5,-1.4063 -0.4844,-0.5312 -1.2813,-0.5312 -0.9062,0 -1.4453,0.5156 -0.5391,0.5156 -0.6172,1.4375 l 3.8438,-0.0156 z m 8.4531,5.875 0,0.8281 -6.25,0 0,-0.8281 6.25,0 z m 6.4688,-5.9688 0,3.9688 -1.0782,0 0,-3.9219 q 0,-0.9375 -0.3672,-1.3984 -0.3672,-0.461 -1.0859,-0.461 -0.875,0 -1.3828,0.5547 -0.5078,0.5547 -0.5078,1.5234 l 0,3.7032 -1.0781,0 0,-9.125 1.0781,0 0,3.5781 q 0.3906,-0.5938 0.914,-0.8828 0.5235,-0.2891 1.211,-0.2891 1.125,0 1.7109,0.6953 0.586,0.6953 0.586,2.0547 z m 5.5156,0.6719 q -1.2969,0 -1.8047,0.2969 -0.5078,0.2968 -0.5078,1.0156 0,0.5781 0.3828,0.9141 0.3828,0.3359 1.0234,0.3359 0.9063,0 1.4453,-0.6328 0.5391,-0.6328 0.5391,-1.6953 l 0,-0.2344 -1.0781,0 z m 2.1562,-0.4531 0,3.75 -1.0781,0 0,-1 q -0.375,0.5937 -0.9219,0.8828 -0.5468,0.289 -1.3437,0.289 -1.0157,0 -1.6094,-0.5703 -0.5937,-0.5703 -0.5937,-1.5078 0,-1.1094 0.7421,-1.6719 0.7422,-0.5625 2.211,-0.5625 l 1.5156,0 0,-0.1093 q 0,-0.75 -0.4922,-1.1563 -0.4922,-0.4062 -1.3672,-0.4062 -0.5625,0 -1.1015,0.1406 -0.5391,0.1406 -1.0235,0.4062 l 0,-1 q 0.5938,-0.2343 1.1485,-0.3437 0.5546,-0.1094 1.0859,-0.1094 1.4219,0 2.125,0.7344 0.7031,0.7344 0.7031,2.2344 z m 8.3282,-0.2188 0,3.9688 -1.0782,0 0,-3.9219 q 0,-0.9375 -0.3672,-1.3984 -0.3672,-0.461 -1.0859,-0.461 -0.875,0 -1.3828,0.5547 -0.5078,0.5547 -0.5078,1.5234 l 0,3.7032 -1.0781,0 0,-6.5625 1.0781,0 0,1.0156 q 0.3906,-0.5938 0.914,-0.8828 0.5235,-0.2891 1.211,-0.2891 1.125,0 1.7109,0.6953 0.586,0.6953 0.586,2.0547 z m 6.8593,-1.5937 0,-3.5625 1.0781,0 0,9.125 -1.0781,0 0,-0.9844 q -0.3437,0.5781 -0.8593,0.8672 -0.5157,0.289 -1.25,0.289 -1.1876,0 -1.9376,-0.9531 -0.75,-0.9531 -0.75,-2.5 0,-1.5469 0.75,-2.4922 0.75,-0.9453 1.9376,-0.9453 0.7343,0 1.25,0.2813 0.5156,0.2812 0.8593,0.875 z m -3.6719,2.2812 q 0,1.1875 0.4844,1.8672 0.4844,0.6797 1.3438,0.6797 0.8594,0 1.3515,-0.6797 0.4922,-0.6797 0.4922,-1.8672 0,-1.1875 -0.4922,-1.8594 -0.4921,-0.6718 -1.3515,-0.6718 -0.8594,0 -1.3438,0.6718 -0.4844,0.6719 -0.4844,1.8594 z m 7.3438,-5.8437 1.0781,0 0,9.125 -1.0781,0 0,-9.125 z m 8.625,5.5781 0,0.5156 -4.9688,0 q 0.0782,1.125 0.6797,1.7031 0.6016,0.5782 1.6641,0.5782 0.625,0 1.2109,-0.1485 0.586,-0.1484 1.1641,-0.4609 l 0,1.0312 q -0.5938,0.2344 -1.2031,0.3672 -0.6094,0.1328 -1.2344,0.1328 -1.5625,0 -2.4844,-0.914 -0.9219,-0.9141 -0.9219,-2.4766 0,-1.6094 0.875,-2.5547 0.875,-0.9453 2.3438,-0.9453 1.3281,0 2.1016,0.8516 0.7734,0.8515 0.7734,2.3203 z m -1.0781,-0.3281 q -0.0157,-0.875 -0.5,-1.4063 -0.4844,-0.5312 -1.2813,-0.5312 -0.9062,0 -1.4453,0.5156 -0.5391,0.5156 -0.6172,1.4375 l 3.8438,-0.0156 z m 7.2656,-1.6875 q -0.1875,-0.0938 -0.3984,-0.1485 -0.211,-0.0547 -0.4766,-0.0547 -0.9063,0 -1.3984,0.5938 -0.4922,0.5937 -0.4922,1.7187 l 0,3.4532 -1.0781,0 0,-6.5625 1.0781,0 0,1.0156 q 0.3437,-0.5938 0.8906,-0.8828 0.5469,-0.2891 1.3281,-0.2891 0.1094,0 0.2422,0.0156 0.1328,0.0157 0.2891,0.0469 l 0.0156,1.0938 z m 1.4687,4.0781 1.2344,0 0,1.4844 -1.2344,0 0,-1.4844 z m 0,-4.7188 1.2344,0 0,1.4844 -1.2344,0 0,-1.4844 z"
         clip-path="url(#clipPath12)"
         id="path207"
         inkscape:connector-curvature="0"
         style="stroke:none" />
      <path
         d="m 43.5,63.1411 1.0781,0 1.3594,5.125 1.3281,-5.125 1.2813,0 1.3437,5.125 1.3438,-5.125 1.0781,0 -1.7187,6.5625 -1.2657,0 -1.4219,-5.375 -1.4062,5.375 -1.2812,0 L 43.5,63.1411 z m 15.0938,2.5937 0,3.9688 -1.0782,0 0,-3.9219 q 0,-0.9375 -0.3672,-1.3984 -0.3672,-0.461 -1.0859,-0.461 -0.875,0 -1.3828,0.5547 -0.5078,0.5547 -0.5078,1.5234 l 0,3.7032 -1.0781,0 0,-9.125 1.0781,0 0,3.5781 q 0.3906,-0.5938 0.914,-0.8828 0.5235,-0.2891 1.211,-0.2891 1.125,0 1.7109,0.6953 0.586,0.6953 0.586,2.0547 z m 2.5312,-2.5937 1.0781,0 0,6.5625 -1.0781,0 0,-6.5625 z m 0,-2.5625 1.0781,0 0,1.375 -1.0781,0 0,-1.375 z m 7.7344,2.8125 0,1.0156 q -0.4688,-0.2656 -0.9219,-0.3906 -0.4531,-0.125 -0.9219,-0.125 -1.0625,0 -1.6406,0.664 -0.5781,0.6641 -0.5781,1.8672 0,1.2031 0.5781,1.8672 0.5781,0.6641 1.6406,0.6641 0.4688,0 0.9219,-0.125 0.4531,-0.125 0.9219,-0.375 l 0,1 q -0.4532,0.2031 -0.9375,0.3125 -0.4844,0.1093 -1.0313,0.1093 -1.4844,0 -2.3594,-0.9296 -0.875,-0.9297 -0.875,-2.5235 0,-1.5937 0.8829,-2.5156 0.8828,-0.9219 2.4297,-0.9219 0.4843,0 0.9609,0.1016 0.4765,0.1015 0.9297,0.3047 z m 7.7344,2.3437 0,3.9688 -1.0782,0 0,-3.9219 q 0,-0.9375 -0.3672,-1.3984 -0.3672,-0.461 -1.0859,-0.461 -0.875,0 -1.3828,0.5547 -0.5078,0.5547 -0.5078,1.5234 l 0,3.7032 -1.0781,0 0,-9.125 1.0781,0 0,3.5781 q 0.3906,-0.5938 0.914,-0.8828 0.5235,-0.2891 1.211,-0.2891 1.125,0 1.7109,0.6953 0.586,0.6953 0.586,2.0547 z m 7.5312,5.9688 0,0.8281 -6.25,0 0,-0.8281 6.25,0 z m 4.8125,-7.5625 q -0.1875,-0.0938 -0.3984,-0.1485 -0.211,-0.0547 -0.4766,-0.0547 -0.9063,0 -1.3984,0.5938 -0.4922,0.5937 -0.4922,1.7187 l 0,3.4532 -1.0781,0 0,-6.5625 1.0781,0 0,1.0156 q 0.3437,-0.5938 0.8906,-0.8828 0.5469,-0.2891 1.3281,-0.2891 0.1094,0 0.2422,0.0156 0.1328,0.0157 0.2891,0.0469 l 0.0156,1.0938 z m 6.8125,2.0156 0,0.5156 -4.9688,0 q 0.0782,1.125 0.6797,1.7031 0.6016,0.5782 1.6641,0.5782 0.625,0 1.2109,-0.1485 0.586,-0.1484 1.1641,-0.4609 l 0,1.0312 q -0.5938,0.2344 -1.2031,0.3672 -0.6094,0.1328 -1.2344,0.1328 -1.5625,0 -2.4844,-0.914 -0.9219,-0.9141 -0.9219,-2.4766 0,-1.6094 0.875,-2.5547 0.875,-0.9453 2.3438,-0.9453 1.3281,0 2.1016,0.8516 0.7734,0.8515 0.7734,2.3203 z m -1.0781,-0.3281 q -0.0157,-0.875 -0.5,-1.4063 -0.4844,-0.5312 -1.2813,-0.5312 -0.9062,0 -1.4453,0.5156 -0.5391,0.5156 -0.6172,1.4375 l 3.8438,-0.0156 z m 3.4531,-5.25 1.0781,0 0,9.125 -1.0781,0 0,-9.125 z m 8.625,5.5781 0,0.5156 -4.9688,0 q 0.0782,1.125 0.6797,1.7031 0.6016,0.5782 1.6641,0.5782 0.625,0 1.2109,-0.1485 0.586,-0.1484 1.1641,-0.4609 l 0,1.0312 q -0.5938,0.2344 -1.2031,0.3672 -0.6094,0.1328 -1.2344,0.1328 -1.5625,0 -2.4844,-0.914 -0.9219,-0.9141 -0.9219,-2.4766 0,-1.6094 0.875,-2.5547 0.875,-0.9453 2.3438,-0.9453 1.3281,0 2.1016,0.8516 0.7734,0.8515 0.7734,2.3203 z m -1.0781,-0.3281 q -0.0157,-0.875 -0.5,-1.4063 -0.4844,-0.5312 -1.2813,-0.5312 -0.9062,0 -1.4453,0.5156 -0.5391,0.5156 -0.6172,1.4375 l 3.8438,-0.0156 z m 6.4375,0.5781 q -1.2969,0 -1.8047,0.2969 -0.5078,0.2968 -0.5078,1.0156 0,0.5781 0.3828,0.9141 0.3828,0.3359 1.0234,0.3359 0.9063,0 1.4453,-0.6328 0.5391,-0.6328 0.5391,-1.6953 l 0,-0.2344 -1.0781,0 z m 2.1562,-0.4531 0,3.75 -1.0781,0 0,-1 q -0.375,0.5937 -0.9219,0.8828 -0.5468,0.289 -1.3437,0.289 -1.0157,0 -1.6094,-0.5703 -0.5937,-0.5703 -0.5937,-1.5078 0,-1.1094 0.7421,-1.6719 0.7422,-0.5625 2.211,-0.5625 l 1.5156,0 0,-0.1093 q 0,-0.75 -0.4922,-1.1563 -0.4922,-0.4062 -1.3672,-0.4062 -0.5625,0 -1.1015,0.1406 -0.5391,0.1406 -1.0235,0.4062 l 0,-1 q 0.5938,-0.2343 1.1485,-0.3437 0.5546,-0.1094 1.0859,-0.1094 1.4219,0 2.125,0.7344 0.7031,0.7344 0.7031,2.2344 z m 7.0469,-2.625 0,1.0312 q -0.4531,-0.2344 -0.9453,-0.3515 -0.4922,-0.1172 -1.0234,-0.1172 -0.7969,0 -1.2032,0.2422 -0.4062,0.2421 -0.4062,0.7421 0,0.375 0.289,0.586 0.2891,0.2109 1.1641,0.3984 l 0.3594,0.0938 q 1.1562,0.2343 1.6406,0.6875 0.4844,0.4531 0.4844,1.25 0,0.9218 -0.7266,1.4531 -0.7265,0.5312 -1.9922,0.5312 -0.5312,0 -1.1015,-0.1015 -0.5704,-0.1016 -1.1954,-0.3047 l 0,-1.125 q 0.5938,0.3125 1.1719,0.4687 0.5781,0.1563 1.1563,0.1563 0.75,0 1.164,-0.2578 0.4141,-0.2578 0.4141,-0.7422 0,-0.4375 -0.2969,-0.6719 -0.2968,-0.2344 -1.2968,-0.4531 l -0.375,-0.0781 q -1,-0.2188 -1.4454,-0.6563 -0.4453,-0.4375 -0.4453,-1.1875 0,-0.9375 0.6563,-1.4375 0.6562,-0.5 1.8594,-0.5 0.5937,0 1.125,0.086 0.5312,0.0859 0.9687,0.2578 z m 8.4375,2.8281 0,0.5156 -4.9688,0 q 0.0782,1.125 0.6797,1.7031 0.6016,0.5782 1.6641,0.5782 0.625,0 1.2109,-0.1485 0.586,-0.1484 1.1641,-0.4609 l 0,1.0312 q -0.5938,0.2344 -1.2031,0.3672 -0.6094,0.1328 -1.2344,0.1328 -1.5625,0 -2.4844,-0.914 -0.9219,-0.9141 -0.9219,-2.4766 0,-1.6094 0.875,-2.5547 0.875,-0.9453 2.3438,-0.9453 1.3281,0 2.1016,0.8516 0.7734,0.8515 0.7734,2.3203 z m -1.0781,-0.3281 q -0.0157,-0.875 -0.5,-1.4063 -0.4844,-0.5312 -1.2813,-0.5312 -0.9062,0 -1.4453,0.5156 -0.5391,0.5156 -0.6172,1.4375 l 3.8438,-0.0156 z m 7.6406,-2.5 0,1.0312 q -0.4531,-0.2344 -0.9453,-0.3515 -0.4922,-0.1172 -1.0234,-0.1172 -0.7969,0 -1.2032,0.2422 -0.4062,0.2421 -0.4062,0.7421 0,0.375 0.289,0.586 0.2891,0.2109 1.1641,0.3984 l 0.3594,0.0938 q 1.1562,0.2343 1.6406,0.6875 0.4844,0.4531 0.4844,1.25 0,0.9218 -0.7266,1.4531 -0.7265,0.5312 -1.9922,0.5312 -0.5312,0 -1.1015,-0.1015 -0.5704,-0.1016 -1.1954,-0.3047 l 0,-1.125 q 0.5938,0.3125 1.1719,0.4687 0.5781,0.1563 1.1563,0.1563 0.75,0 1.164,-0.2578 0.4141,-0.2578 0.4141,-0.7422 0,-0.4375 -0.2969,-0.6719 -0.2968,-0.2344 -1.2968,-0.4531 l -0.375,-0.0781 q -1,-0.2188 -1.4454,-0.6563 -0.4453,-0.4375 -0.4453,-1.1875 0,-0.9375 0.6563,-1.4375 0.6562,-0.5 1.8594,-0.5 0.5937,0 1.125,0.086 0.5312,0.0859 0.9687,0.2578 z m 4.7344,-2.375 1,0 -3.0469,9.8593 -1,0 3.0469,-9.8593 z m 4.7656,0.7812 q -0.9063,0 -1.3672,0.8985 -0.4609,0.8984 -0.4609,2.7109 0,1.7969 0.4609,2.6953 0.4609,0.8984 1.3672,0.8984 0.9219,0 1.3828,-0.8984 0.4609,-0.8984 0.4609,-2.6953 0,-1.8125 -0.4609,-2.7109 -0.4609,-0.8985 -1.3828,-0.8985 z m 0,-0.9375 q 1.4687,0 2.25,1.1641 0.7813,1.164 0.7813,3.3828 0,2.2031 -0.7813,3.3672 -0.7813,1.164 -2.25,1.164 -1.4687,0 -2.2422,-1.164 -0.7734,-1.1641 -0.7734,-3.3672 0,-2.2188 0.7734,-3.3828 0.7735,-1.1641 2.2422,-1.1641 z m 5.1563,-0.2031 0.9374,0 q 0.875,1.3906 1.3126,2.7109 0.4374,1.3203 0.4374,2.6328 0,1.3125 -0.4374,2.6407 -0.4376,1.3281 -1.3126,2.7031 l -0.9374,0 q 0.7656,-1.3438 1.1562,-2.6719 0.3906,-1.3281 0.3906,-2.6719 0,-1.3593 -0.3906,-2.6796 -0.3906,-1.3204 -1.1562,-2.6641 z"
         clip-path="url(#clipPath12)"
         id="path209"
         inkscape:connector-curvature="0"
         style="stroke:none" />
    </g>
    <g
       font-size="11"
       transform="translate(32,229)"
       text-rendering="geometricPrecision"
       id="g211"
       style="font-size:11px;fill:#ffffff;fill-opacity:1;stroke:#ffffff;stroke-opacity:1;font-family:sans-serif">
      <rect
         x="28"
         width="253"
         height="14"
         y="5"
         clip-path="url(#clipPath13)"
         id="rect213"
         style="stroke:none" />
    </g>
    <g
       font-size="11"
       transform="translate(60,234)"
       text-rendering="geometricPrecision"
       id="g215"
       style="font-size:11px;fill:#000000;fill-opacity:1;stroke:#000000;stroke-opacity:1;font-family:sans-serif">
      <text
         x="10"
         xml:space="preserve"
         y="11"
         clip-path="url(#clipPath14)"
         id="text217"
         style="stroke:none">[While database returns jobs to perform]</text>
    </g>
    <g
       font-size="11"
       transform="translate(372,2)"
       text-rendering="geometricPrecision"
       id="g219"
       style="font-size:11px;fill:#000000;fill-opacity:1;stroke:#000000;stroke-opacity:1;font-family:sans-serif">
      <text
         x="16"
         xml:space="preserve"
         y="11"
         clip-path="url(#clipPath16)"
         id="text221"
         style="stroke:none">Server</text>
    </g>
    <g
       font-size="11"
       transform="translate(2,2)"
       text-rendering="geometricPrecision"
       id="g223"
       style="font-size:11px;fill:#000000;fill-opacity:1;stroke:#000000;stroke-opacity:1;font-family:sans-serif">
      <text
         x="26"
         xml:space="preserve"
         y="11"
         clip-path="url(#clipPath17)"
         id="text225"
         style="stroke:none">Client application</text>
    </g>
    <g
       font-size="11"
       transform="translate(612,2)"
       text-rendering="geometricPrecision"
       id="g227"
       style="font-size:11px;fill:#000000;fill-opacity:1;stroke:#000000;stroke-opacity:1;font-family:sans-serif">
      <text
         x="13"
         xml:space="preserve"
         y="11"
         clip-path="url(#clipPath18)"
         id="text229"
         style="stroke:none">Database</text>
    </g>
    <g
       font-size="11"
       transform="translate(31,12)"
       text-rendering="geometricPrecision"
       id="g231"
       style="font-size:11px;fill:#000000;fill-opacity:1;stroke:#000000;stroke-linecap:butt;stroke-linejoin:round;stroke-opacity:1;font-family:sans-serif">
      <line
         y2="50"
         x1="50"
         clip-path="url(#clipPath19)"
         x2="372"
         y1="50"
         id="line233"
         style="fill:none" />
      <polygon
         points="360,56 372,50 360,44 "
         clip-path="url(#clipPath19)"
         id="polygon235"
         style="stroke:none" />
      <polygon
         points="360,56 372,50 360,44 "
         clip-path="url(#clipPath19)"
         id="polygon237"
         style="fill:none" />
    </g>
    <g
       font-size="11"
       transform="translate(132,12)"
       text-rendering="geometricPrecision"
       id="g239"
       style="font-size:11px;fill:#000000;fill-opacity:1;stroke:#000000;stroke-linecap:butt;stroke-linejoin:round;stroke-opacity:1;stroke-dasharray:4;font-family:sans-serif">
      <line
         y2="69"
         x1="50"
         clip-path="url(#clipPath20)"
         x2="50"
         y1="50"
         id="line241"
         style="fill:none" />
    </g>
    <g
       font-size="11"
       transform="translate(361,102)"
       text-rendering="geometricPrecision"
       id="g243"
       style="font-size:11px;fill:#000000;fill-opacity:1;stroke:#000000;stroke-linecap:butt;stroke-linejoin:round;stroke-opacity:1;font-family:sans-serif">
      <line
         y2="50"
         x1="50"
         clip-path="url(#clipPath21)"
         x2="287"
         y1="50"
         id="line245"
         style="fill:none" />
      <polygon
         points="275,56 287,50 275,44 "
         clip-path="url(#clipPath21)"
         id="polygon247"
         style="stroke:none" />
      <polygon
         points="275,56 287,50 275,44 "
         clip-path="url(#clipPath21)"
         id="polygon249"
         style="fill:none" />
    </g>
    <g
       font-size="11"
       transform="translate(361,132)"
       text-rendering="geometricPrecision"
       stroke-miterlimit="0"
       id="g251"
       style="font-size:11px;fill:#000000;fill-opacity:1;stroke:#000000;stroke-linecap:butt;stroke-linejoin:round;stroke-miterlimit:0;stroke-opacity:1;stroke-dasharray:8, 3;font-family:sans-serif">
      <line
         y2="50"
         x1="287"
         clip-path="url(#clipPath21)"
         x2="50"
         y1="50"
         id="line253"
         style="fill:none" />
      <line
         clip-path="url(#clipPath21)"
         x1="50"
         x2="62"
         y1="50"
         y2="56"
         stroke-miterlimit="10"
         id="line255"
         style="fill:none;stroke-miterlimit:10;stroke-dasharray:none" />
      <line
         clip-path="url(#clipPath21)"
         x1="50"
         x2="62"
         y1="50"
         y2="44"
         stroke-miterlimit="10"
         id="line257"
         style="fill:none;stroke-miterlimit:10;stroke-dasharray:none" />
    </g>
    <g
       font-size="11"
       transform="translate(361,222)"
       text-rendering="geometricPrecision"
       id="g259"
       style="font-size:11px;fill:#000000;fill-opacity:1;stroke:#000000;stroke-linecap:butt;stroke-linejoin:round;stroke-opacity:1;font-family:sans-serif">
      <line
         y2="50"
         x1="50"
         clip-path="url(#clipPath21)"
         x2="287"
         y1="50"
         id="line261"
         style="fill:none" />
      <polygon
         points="275,56 287,50 275,44 "
         clip-path="url(#clipPath21)"
         id="polygon263"
         style="stroke:none" />
      <polygon
         points="275,56 287,50 275,44 "
         clip-path="url(#clipPath21)"
         id="polygon265"
         style="fill:none" />
    </g>
    <g
       font-size="11"
       transform="translate(361,252)"
       text-rendering="geometricPrecision"
       stroke-miterlimit="0"
       id="g267"
       style="font-size:11px;fill:#000000;fill-opacity:1;stroke:#000000;stroke-linecap:butt;stroke-linejoin:round;stroke-miterlimit:0;stroke-opacity:1;stroke-dasharray:8, 3;font-family:sans-serif">
      <line
         y2="50"
         x1="287"
         clip-path="url(#clipPath21)"
         x2="50"
         y1="50"
         id="line269"
         style="fill:none" />
      <line
         clip-path="url(#clipPath21)"
         x1="50"
         x2="62"
         y1="50"
         y2="56"
         stroke-miterlimit="10"
         id="line271"
         style="fill:none;stroke-miterlimit:10;stroke-dasharray:none" />
      <line
         clip-path="url(#clipPath21)"
         x1="50"
         x2="62"
         y1="50"
         y2="44"
         stroke-miterlimit="10"
         id="line273"
         style="fill:none;stroke-miterlimit:10;stroke-dasharray:none" />
    </g>
    <g
       font-size="11"
       transform="translate(31,302)"
       text-rendering="geometricPrecision"
       id="g275"
       style="font-size:11px;fill:#000000;fill-opacity:1;stroke:#000000;stroke-linecap:butt;stroke-linejoin:round;stroke-opacity:1;font-family:sans-serif">
      <line
         y2="50"
         x1="372"
         clip-path="url(#clipPath19)"
         x2="50"
         y1="50"
         id="line277"
         style="fill:none" />
      <polygon
         points="62,44 50,50 62,56 "
         clip-path="url(#clipPath19)"
         id="polygon279"
         style="stroke:none" />
      <polygon
         points="62,44 50,50 62,56 "
         clip-path="url(#clipPath19)"
         id="polygon281"
         style="fill:none" />
    </g>
    <g
       font-size="11"
       transform="translate(31,342)"
       text-rendering="geometricPrecision"
       stroke-miterlimit="0"
       id="g283"
       style="font-size:11px;fill:#000000;fill-opacity:1;stroke:#000000;stroke-linecap:butt;stroke-linejoin:round;stroke-miterlimit:0;stroke-opacity:1;stroke-dasharray:8, 3;font-family:sans-serif">
      <line
         y2="50"
         x1="50"
         clip-path="url(#clipPath19)"
         x2="372"
         y1="50"
         id="line285"
         style="fill:none" />
      <line
         clip-path="url(#clipPath19)"
         x1="372"
         x2="360"
         y1="50"
         y2="44"
         stroke-miterlimit="10"
         id="line287"
         style="fill:none;stroke-miterlimit:10;stroke-dasharray:none" />
      <line
         clip-path="url(#clipPath19)"
         x1="372"
         x2="360"
         y1="50"
         y2="56"
         stroke-miterlimit="10"
         id="line289"
         style="fill:none;stroke-miterlimit:10;stroke-dasharray:none" />
    </g>
    <g
       font-size="11"
       transform="translate(361,382)"
       text-rendering="geometricPrecision"
       id="g291"
       style="font-size:11px;fill:#000000;fill-opacity:1;stroke:#000000;stroke-linecap:butt;stroke-linejoin:round;stroke-opacity:1;font-family:sans-serif">
      <line
         y2="50"
         x1="50"
         clip-path="url(#clipPath21)"
         x2="287"
         y1="50"
         id="line293"
         style="fill:none" />
      <polygon
         points="275,56 287,50 275,44 "
         clip-path="url(#clipPath21)"
         id="polygon295"
         style="stroke:none" />
      <polygon
         points="275,56 287,50 275,44 "
         clip-path="url(#clipPath21)"
         id="polygon297"
         style="fill:none" />
    </g>
    <g
       font-size="11"
       transform="translate(31,432)"
       text-rendering="geometricPrecision"
       id="g299"
       style="font-size:11px;fill:#000000;fill-opacity:1;stroke:#000000;stroke-linecap:butt;stroke-linejoin:round;stroke-opacity:1;font-family:sans-serif">
      <line
         y2="50"
         x1="372"
         clip-path="url(#clipPath19)"
         x2="50"
         y1="50"
         id="line301"
         style="fill:none" />
      <polygon
         points="62,44 50,50 62,56 "
         clip-path="url(#clipPath19)"
         id="polygon303"
         style="stroke:none" />
      <polygon
         points="62,44 50,50 62,56 "
         clip-path="url(#clipPath19)"
         id="polygon305"
         style="fill:none" />
    </g>
    <g
       font-size="11"
       transform="translate(182,462)"
       text-rendering="geometricPrecision"
       id="g307"
       style="font-size:11px;fill:#000000;fill-opacity:1;stroke:#000000;stroke-opacity:1;font-family:sans-serif">
      <text
         x="10"
         xml:space="preserve"
         y="11"
         clip-path="url(#clipPath22)"
         id="text309"
         style="stroke:none">1.8: End session</text>
    </g>
    <g
       font-size="11"
       transform="translate(462,412)"
       text-rendering="geometricPrecision"
       id="g311"
       style="font-size:11px;fill:#000000;fill-opacity:1;stroke:#000000;stroke-opacity:1;font-family:sans-serif">
      <text
         x="9"
         xml:space="preserve"
         y="11"
         clip-path="url(#clipPath23)"
         id="text313"
         style="stroke:none">1.7: Set job status</text>
    </g>
    <g
       font-size="11"
       transform="translate(202,372)"
       text-rendering="geometricPrecision"
       id="g315"
       style="font-size:11px;fill:#000000;fill-opacity:1;stroke:#000000;stroke-opacity:1;font-family:sans-serif">
      <text
         x="9"
         xml:space="preserve"
         y="11"
         clip-path="url(#clipPath24)"
         id="text317"
         style="stroke:none">1.6: Result</text>
    </g>
    <g
       font-size="11"
       transform="translate(189,322)"
       text-rendering="geometricPrecision"
       id="g319"
       style="font-size:11px;fill:#000000;fill-opacity:1;stroke:#000000;stroke-opacity:1;font-family:sans-serif">
      <text
         x="10"
         xml:space="preserve"
         y="11"
         clip-path="url(#clipPath25)"
         id="text321"
         style="stroke:none">1.5: Perform job</text>
    </g>
    <g
       font-size="11"
       transform="translate(462,282)"
       text-rendering="geometricPrecision"
       id="g323"
       style="font-size:11px;fill:#000000;fill-opacity:1;stroke:#000000;stroke-opacity:1;font-family:sans-serif">
      <text
         x="10"
         xml:space="preserve"
         y="11"
         clip-path="url(#clipPath26)"
         id="text325"
         style="stroke:none">1.4: Job to perform</text>
    </g>
    <g
       font-size="11"
       transform="translate(452,252)"
       text-rendering="geometricPrecision"
       id="g327"
       style="font-size:11px;fill:#000000;fill-opacity:1;stroke:#000000;stroke-opacity:1;font-family:sans-serif">
      <text
         x="10"
         xml:space="preserve"
         y="11"
         clip-path="url(#clipPath27)"
         id="text329"
         style="stroke:none">1.3: Get first job from list</text>
    </g>
    <g
       font-size="11"
       transform="translate(452,162)"
       text-rendering="geometricPrecision"
       id="g331"
       style="font-size:11px;fill:#000000;fill-opacity:1;stroke:#000000;stroke-opacity:1;font-family:sans-serif">
      <text
         x="10"
         xml:space="preserve"
         y="11"
         clip-path="url(#clipPath28)"
         id="text333"
         style="stroke:none">1.2: Last known state</text>
    </g>
    <g
       font-size="11"
       transform="translate(452,132)"
       text-rendering="geometricPrecision"
       id="g335"
       style="font-size:11px;fill:#000000;fill-opacity:1;stroke:#000000;stroke-opacity:1;font-family:sans-serif">
      <text
         x="10"
         xml:space="preserve"
         y="11"
         clip-path="url(#clipPath17)"
         id="text337"
         style="stroke:none">1.1: Check device state</text>
    </g>
    <g
       font-size="11"
       transform="translate(163,42)"
       text-rendering="geometricPrecision"
       id="g339"
       style="font-size:11px;fill:#000000;fill-opacity:1;stroke:#000000;stroke-opacity:1;font-family:sans-serif">
      <text
         x="9"
         xml:space="preserve"
         y="11"
         clip-path="url(#clipPath29)"
         id="text341"
         style="stroke:none">1: Initialize connection</text>
    </g>
  </g>
</svg>
